<?xml version="1.0" encoding="utf-8"?>
<!-- Generator: Adobe Illustrator 21.0.2, SVG Export Plug-In . SVG Version: 6.00 Build 0)  -->
<svg version="1.1" id="Layer_1" xmlns="http://www.w3.org/2000/svg" xmlns:xlink="http://www.w3.org/1999/xlink" x="0px" y="0px"
	 width="2272px" height="1872px" viewBox="0 0 2272 1872" enable-background="new 0 0 2272 1872" xml:space="preserve">
<rect fill="#001570" width="2272" height="1872"/>
<g>
	<path fill="#FFFFFF" d="M698.8,898.1H234.2c-22.5,0-40.7-18.2-40.7-40.7V92.6c0-22.5,18.2-40.7,40.7-40.7h464.6
		c22.5,0,40.7,18.2,40.7,40.7v764.8C739.5,879.9,721.3,898.1,698.8,898.1z"/>
	<g>
		<g>
			<path fill="#170039" d="M242.4,105.1c0,1.8-0.2,3.4-0.7,4.8c-0.4,1.4-1.1,2.7-2,3.6c-0.9,1-1.9,1.8-3.2,2.3
				c-1.3,0.5-2.7,0.8-4.4,0.8c-1.5,0-3-0.2-4.6-0.6l0.3-2.8c0-0.3,0.1-0.5,0.3-0.7c0.2-0.2,0.4-0.3,0.8-0.3c0.3,0,0.6,0.1,1,0.2
				c0.4,0.1,1,0.2,1.7,0.2c1,0,1.8-0.1,2.5-0.4c0.7-0.3,1.4-0.7,1.9-1.3s0.9-1.4,1.2-2.3c0.3-0.9,0.4-2.1,0.4-3.4V84.1h4.8V105.1z"
				/>
			<path fill="#170039" d="M252.5,145.1c0,2.4-0.4,4.6-1.2,6.6c-0.8,2-1.9,3.7-3.3,5.2c-1.4,1.5-3.1,2.6-5,3.4
				c-2,0.8-4.1,1.2-6.5,1.2c-2.4,0-4.5-0.4-6.5-1.2c-2-0.8-3.6-1.9-5-3.4c-1.4-1.5-2.5-3.2-3.3-5.2c-0.8-2-1.2-4.2-1.2-6.6
				c0-2.4,0.4-4.6,1.2-6.6s1.9-3.8,3.3-5.2c1.4-1.5,3.1-2.6,5-3.4c2-0.8,4.1-1.2,6.5-1.2c2.4,0,4.6,0.4,6.5,1.2c2,0.8,3.6,2,5,3.4
				c1.4,1.5,2.5,3.2,3.3,5.2S252.5,142.7,252.5,145.1z M247.6,145.1c0-1.9-0.3-3.6-0.8-5.2c-0.5-1.5-1.3-2.8-2.2-3.9
				s-2.1-1.9-3.5-2.4c-1.4-0.6-2.9-0.9-4.6-0.9c-1.7,0-3.2,0.3-4.6,0.9c-1.4,0.6-2.5,1.4-3.5,2.4c-1,1.1-1.7,2.4-2.2,3.9
				c-0.5,1.5-0.8,3.2-0.8,5.2c0,1.9,0.3,3.7,0.8,5.2c0.5,1.5,1.3,2.8,2.2,3.9c1,1.1,2.1,1.9,3.5,2.4c1.4,0.6,2.9,0.8,4.6,0.8
				c1.7,0,3.2-0.3,4.6-0.8c1.4-0.6,2.5-1.4,3.5-2.4c1-1.1,1.7-2.4,2.2-3.9S247.6,147,247.6,145.1z"/>
			<path fill="#170039" d="M230.3,187.8h1.6c0.6,0,1-0.1,1.4-0.2c0.4-0.1,0.7-0.4,1-0.7l10.2-11.9c0.3-0.4,0.7-0.7,1-0.8
				c0.3-0.2,0.8-0.2,1.3-0.2h4.1l-11.9,13.7c-0.3,0.4-0.6,0.7-0.9,0.9s-0.6,0.4-0.9,0.6c0.8,0.3,1.5,0.9,2.2,1.7l12.4,15.2h-4.1
				c-0.3,0-0.6,0-0.8-0.1s-0.4-0.1-0.6-0.2c-0.2-0.1-0.3-0.2-0.4-0.3s-0.2-0.3-0.3-0.4l-10.6-12.6c-0.1-0.2-0.3-0.4-0.4-0.5
				c-0.1-0.1-0.3-0.2-0.5-0.3s-0.4-0.1-0.7-0.2c-0.3,0-0.6-0.1-0.9-0.1h-2v14.6h-4.8v-32.2h4.8V187.8z"/>
			<path fill="#170039" d="M247.5,247l0,3.9h-20v-32.2h20v3.9h-15.2v10.2h12.2v3.7h-12.2V247H247.5z"/>
			<path fill="#170039" d="M250.5,295.8h-4.3c-0.9,0-1.5-0.3-1.9-1l-8-11.2c-0.3-0.4-0.5-0.6-0.8-0.8c-0.3-0.2-0.7-0.2-1.3-0.2h-3.1
				v13.2h-4.8v-32.2h9.3c2.1,0,3.9,0.2,5.4,0.6s2.7,1,3.7,1.8c1,0.8,1.7,1.7,2.2,2.8c0.5,1.1,0.7,2.3,0.7,3.7c0,1.1-0.2,2.2-0.5,3.2
				c-0.3,1-0.8,1.9-1.5,2.7c-0.7,0.8-1.5,1.5-2.4,2c-1,0.6-2,1-3.3,1.3c0.6,0.4,1.1,0.9,1.5,1.5L250.5,295.8z M235.5,279.1
				c1.2,0,2.3-0.1,3.2-0.4c0.9-0.3,1.7-0.7,2.3-1.3c0.6-0.5,1.1-1.2,1.4-2s0.5-1.6,0.5-2.5c0-1.9-0.6-3.3-1.8-4.2
				c-1.2-0.9-3-1.4-5.5-1.4h-4.5v11.8H235.5z"/>
		</g>
		<g>
			<path fill="#170039" d="M690.7,844.8c0-1.8,0.2-3.4,0.7-4.8c0.4-1.4,1.1-2.7,2-3.6c0.9-1,1.9-1.8,3.2-2.3
				c1.3-0.5,2.7-0.8,4.4-0.8c1.5,0,3,0.2,4.6,0.6l-0.3,2.8c0,0.3-0.1,0.5-0.3,0.7c-0.2,0.2-0.4,0.3-0.8,0.3c-0.3,0-0.6-0.1-1-0.2
				c-0.4-0.1-1-0.2-1.7-0.2c-1,0-1.8,0.1-2.5,0.4c-0.7,0.3-1.4,0.7-1.9,1.3s-0.9,1.4-1.2,2.3c-0.3,0.9-0.4,2.1-0.4,3.4v21.1h-4.8
				V844.8z"/>
			<path fill="#170039" d="M680.5,804.8c0-2.4,0.4-4.6,1.2-6.6c0.8-2,1.9-3.7,3.3-5.2c1.4-1.5,3.1-2.6,5-3.4c2-0.8,4.1-1.2,6.5-1.2
				c2.4,0,4.5,0.4,6.5,1.2c2,0.8,3.6,1.9,5,3.4c1.4,1.5,2.5,3.2,3.3,5.2c0.8,2,1.2,4.2,1.2,6.6c0,2.4-0.4,4.6-1.2,6.6
				s-1.9,3.8-3.3,5.2c-1.4,1.5-3.1,2.6-5,3.4c-2,0.8-4.1,1.2-6.5,1.2c-2.4,0-4.6-0.4-6.5-1.2c-2-0.8-3.6-2-5-3.4
				c-1.4-1.5-2.5-3.2-3.3-5.2S680.5,807.2,680.5,804.8z M685.4,804.8c0,1.9,0.3,3.6,0.8,5.2c0.5,1.5,1.3,2.8,2.2,3.9
				s2.1,1.9,3.5,2.4c1.4,0.6,2.9,0.9,4.6,0.9c1.7,0,3.2-0.3,4.6-0.9c1.4-0.6,2.5-1.4,3.5-2.4c1-1.1,1.7-2.4,2.2-3.9
				c0.5-1.5,0.8-3.2,0.8-5.2c0-1.9-0.3-3.7-0.8-5.2c-0.5-1.5-1.3-2.8-2.2-3.9c-1-1.1-2.1-1.9-3.5-2.4c-1.4-0.6-2.9-0.8-4.6-0.8
				c-1.7,0-3.2,0.3-4.6,0.8c-1.4,0.6-2.5,1.4-3.5,2.4c-1,1.1-1.7,2.4-2.2,3.9S685.4,802.9,685.4,804.8z"/>
			<path fill="#170039" d="M702.8,762.1h-1.6c-0.6,0-1,0.1-1.4,0.2c-0.4,0.1-0.7,0.4-1,0.7L688.6,775c-0.3,0.4-0.7,0.7-1,0.8
				c-0.3,0.2-0.8,0.2-1.3,0.2h-4.1l11.9-13.7c0.3-0.4,0.6-0.7,0.9-0.9s0.6-0.4,0.9-0.6c-0.8-0.3-1.5-0.9-2.2-1.7l-12.4-15.2h4.1
				c0.3,0,0.6,0,0.8,0.1s0.4,0.1,0.6,0.2c0.2,0.1,0.3,0.2,0.4,0.3s0.2,0.3,0.3,0.4l10.6,12.6c0.1,0.2,0.3,0.4,0.4,0.5
				c0.1,0.1,0.3,0.2,0.5,0.3s0.4,0.1,0.7,0.2c0.3,0,0.6,0.1,0.9,0.1h2v-14.6h4.8v32.2h-4.8V762.1z"/>
			<path fill="#170039" d="M685.5,702.9l0-3.9h20v32.2h-20v-3.9h15.2v-10.2h-12.2v-3.7h12.2v-10.5H685.5z"/>
			<path fill="#170039" d="M682.5,654.2h4.3c0.9,0,1.5,0.3,1.9,1l8,11.2c0.3,0.4,0.5,0.6,0.8,0.8c0.3,0.2,0.7,0.2,1.3,0.2h3.1v-13.2
				h4.8v32.2h-9.3c-2.1,0-3.9-0.2-5.4-0.6s-2.7-1-3.7-1.8c-1-0.8-1.7-1.7-2.2-2.8c-0.5-1.1-0.7-2.3-0.7-3.7c0-1.1,0.2-2.2,0.5-3.2
				c0.3-1,0.8-1.9,1.5-2.7c0.7-0.8,1.5-1.5,2.4-2c1-0.6,2-1,3.3-1.3c-0.6-0.4-1.1-0.9-1.5-1.5L682.5,654.2z M697.6,670.8
				c-1.2,0-2.3,0.1-3.2,0.4c-0.9,0.3-1.7,0.7-2.3,1.3c-0.6,0.5-1.1,1.2-1.4,2s-0.5,1.6-0.5,2.5c0,1.9,0.6,3.3,1.8,4.2
				c1.2,0.9,3,1.4,5.5,1.4h4.5v-11.8H697.6z"/>
		</g>
	</g>
	<g>
		<rect x="381.8" y="548.1" fill="#70FAFF" width="159" height="48.4"/>
		<path fill="#FFE01A" d="M381.8,548.1c0,0,5.6-116.4-73.3-119.9v-17.7c0,0,128.3-27.4,128.3,137.6H381.8z"/>
		<path fill="#FF78DD" d="M540.8,548.1c0,0-5.6-116.4,73.3-119.9v-17.7c0,0-128.3-27.4-128.3,137.6H540.8z"/>
		<circle fill="#FF78DD" cx="629.4" cy="420.1" r="26.5"/>
		<circle fill="#5B78FF" cx="460.1" cy="379.9" r="26.5"/>
		<circle fill="#FFE01A" cx="303.6" cy="420.1" r="26.5"/>
		<path fill="#5B78FF" d="M470.8,379.9h-9.9h-1.6h-9.9c-17.2,40.7-27,168.2-27,168.2h36.1h3.2h36.1
			C497.8,548.1,488,420.6,470.8,379.9z"/>
	</g>
</g>
<g>
	<path fill="#FFFFFF" d="M1368.3,898.1H903.7c-22.5,0-40.7-18.2-40.7-40.7V92.6c0-22.5,18.2-40.7,40.7-40.7h464.6
		c22.5,0,40.7,18.2,40.7,40.7v764.8C1409,879.9,1390.8,898.1,1368.3,898.1z"/>
	<g>
		<g>
			<path fill="#170039" d="M911.9,105.1c0,1.8-0.2,3.4-0.7,4.8c-0.4,1.4-1.1,2.7-2,3.6c-0.9,1-1.9,1.8-3.2,2.3
				c-1.3,0.5-2.7,0.8-4.4,0.8c-1.5,0-3-0.2-4.6-0.6l0.3-2.8c0-0.3,0.1-0.5,0.3-0.7c0.2-0.2,0.4-0.3,0.8-0.3c0.3,0,0.6,0.1,1,0.2
				c0.4,0.1,1,0.2,1.7,0.2c1,0,1.8-0.1,2.5-0.4c0.7-0.3,1.4-0.7,1.9-1.3s0.9-1.4,1.2-2.3c0.3-0.9,0.4-2.1,0.4-3.4V84.1h4.8V105.1z"
				/>
			<path fill="#170039" d="M922,145.1c0,2.4-0.4,4.6-1.2,6.6c-0.8,2-1.9,3.7-3.3,5.2c-1.4,1.5-3.1,2.6-5,3.4c-2,0.8-4.1,1.2-6.5,1.2
				c-2.4,0-4.5-0.4-6.5-1.2c-2-0.8-3.6-1.9-5-3.4c-1.4-1.5-2.5-3.2-3.3-5.2c-0.8-2-1.2-4.2-1.2-6.6c0-2.4,0.4-4.6,1.2-6.6
				s1.9-3.8,3.3-5.2c1.4-1.5,3.1-2.6,5-3.4c2-0.8,4.1-1.2,6.5-1.2c2.4,0,4.6,0.4,6.5,1.2c2,0.8,3.6,2,5,3.4c1.4,1.5,2.5,3.2,3.3,5.2
				S922,142.7,922,145.1z M917.1,145.1c0-1.9-0.3-3.6-0.8-5.2c-0.5-1.5-1.3-2.8-2.2-3.9s-2.1-1.9-3.5-2.4c-1.4-0.6-2.9-0.9-4.6-0.9
				c-1.7,0-3.2,0.3-4.6,0.9c-1.4,0.6-2.5,1.4-3.5,2.4c-1,1.1-1.7,2.4-2.2,3.9c-0.5,1.5-0.8,3.2-0.8,5.2c0,1.9,0.3,3.7,0.8,5.2
				c0.5,1.5,1.3,2.8,2.2,3.9c1,1.1,2.1,1.9,3.5,2.4c1.4,0.6,2.9,0.8,4.6,0.8c1.7,0,3.2-0.3,4.6-0.8c1.4-0.6,2.5-1.4,3.5-2.4
				c1-1.1,1.7-2.4,2.2-3.9S917.1,147,917.1,145.1z"/>
			<path fill="#170039" d="M899.8,187.8h1.6c0.6,0,1-0.1,1.4-0.2c0.4-0.1,0.7-0.4,1-0.7l10.2-11.9c0.3-0.4,0.7-0.7,1-0.8
				c0.3-0.2,0.8-0.2,1.3-0.2h4.1l-11.9,13.7c-0.3,0.4-0.6,0.7-0.9,0.9s-0.6,0.4-0.9,0.6c0.8,0.3,1.5,0.9,2.2,1.7l12.4,15.2H917
				c-0.3,0-0.6,0-0.8-0.1s-0.4-0.1-0.6-0.2c-0.2-0.1-0.3-0.2-0.4-0.3s-0.2-0.3-0.3-0.4l-10.6-12.6c-0.1-0.2-0.3-0.4-0.4-0.5
				c-0.1-0.1-0.3-0.2-0.5-0.3s-0.4-0.1-0.7-0.2c-0.3,0-0.6-0.1-0.9-0.1h-2v14.6H895v-32.2h4.8V187.8z"/>
			<path fill="#170039" d="M917,247l0,3.9h-20v-32.2h20v3.9h-15.2v10.2H914v3.7h-12.2V247H917z"/>
			<path fill="#170039" d="M920,295.8h-4.3c-0.9,0-1.5-0.3-1.9-1l-8-11.2c-0.3-0.4-0.5-0.6-0.8-0.8c-0.3-0.2-0.7-0.2-1.3-0.2h-3.1
				v13.2h-4.8v-32.2h9.3c2.1,0,3.9,0.2,5.4,0.6s2.7,1,3.7,1.8c1,0.8,1.7,1.7,2.2,2.8c0.5,1.1,0.7,2.3,0.7,3.7c0,1.1-0.2,2.2-0.5,3.2
				c-0.3,1-0.8,1.9-1.5,2.7c-0.7,0.8-1.5,1.5-2.4,2c-1,0.6-2,1-3.3,1.3c0.6,0.4,1.1,0.9,1.5,1.5L920,295.8z M905,279.1
				c1.2,0,2.3-0.1,3.2-0.4c0.9-0.3,1.7-0.7,2.3-1.3c0.6-0.5,1.1-1.2,1.4-2s0.5-1.6,0.5-2.5c0-1.9-0.6-3.3-1.8-4.2
				c-1.2-0.9-3-1.4-5.5-1.4h-4.5v11.8H905z"/>
		</g>
		<g>
			<path fill="#170039" d="M1360.1,844.8c0-1.8,0.2-3.4,0.7-4.8c0.4-1.4,1.1-2.7,2-3.6c0.9-1,1.9-1.8,3.2-2.3
				c1.3-0.5,2.7-0.8,4.4-0.8c1.5,0,3,0.2,4.6,0.6l-0.3,2.8c0,0.3-0.1,0.5-0.3,0.7s-0.4,0.3-0.8,0.3c-0.3,0-0.6-0.1-1-0.2
				c-0.4-0.1-1-0.2-1.7-0.2c-1,0-1.8,0.1-2.5,0.4c-0.7,0.3-1.4,0.7-1.9,1.3c-0.5,0.6-0.9,1.4-1.2,2.3s-0.4,2.1-0.4,3.4v21.1h-4.8
				V844.8z"/>
			<path fill="#170039" d="M1350,804.8c0-2.4,0.4-4.6,1.2-6.6c0.8-2,1.9-3.7,3.3-5.2c1.4-1.5,3.1-2.6,5-3.4c2-0.8,4.1-1.2,6.5-1.2
				c2.4,0,4.5,0.4,6.5,1.2c2,0.8,3.6,1.9,5,3.4c1.4,1.5,2.5,3.2,3.3,5.2c0.8,2,1.2,4.2,1.2,6.6c0,2.4-0.4,4.6-1.2,6.6
				s-1.9,3.8-3.3,5.2c-1.4,1.5-3.1,2.6-5,3.4c-2,0.8-4.1,1.2-6.5,1.2c-2.4,0-4.6-0.4-6.5-1.2c-2-0.8-3.6-2-5-3.4
				c-1.4-1.5-2.5-3.2-3.3-5.2C1350.4,809.4,1350,807.2,1350,804.8z M1354.9,804.8c0,1.9,0.3,3.6,0.8,5.2c0.5,1.5,1.3,2.8,2.2,3.9
				s2.1,1.9,3.5,2.4c1.4,0.6,2.9,0.9,4.6,0.9c1.7,0,3.2-0.3,4.6-0.9s2.5-1.4,3.5-2.4c1-1.1,1.7-2.4,2.2-3.9c0.5-1.5,0.8-3.2,0.8-5.2
				c0-1.9-0.3-3.7-0.8-5.2c-0.5-1.5-1.3-2.8-2.2-3.9c-1-1.1-2.1-1.9-3.5-2.4c-1.4-0.6-2.9-0.8-4.6-0.8c-1.7,0-3.2,0.3-4.6,0.8
				c-1.4,0.6-2.5,1.4-3.5,2.4c-1,1.1-1.7,2.4-2.2,3.9S1354.9,802.9,1354.9,804.8z"/>
			<path fill="#170039" d="M1372.2,762.1h-1.6c-0.6,0-1,0.1-1.4,0.2c-0.4,0.1-0.7,0.4-1,0.7l-10.2,11.9c-0.3,0.4-0.7,0.7-1,0.8
				c-0.3,0.2-0.8,0.2-1.3,0.2h-4.1l11.9-13.7c0.3-0.4,0.6-0.7,0.9-0.9c0.3-0.2,0.6-0.4,0.9-0.6c-0.8-0.3-1.5-0.9-2.2-1.7l-12.4-15.2
				h4.1c0.3,0,0.6,0,0.8,0.1s0.4,0.1,0.6,0.2c0.2,0.1,0.3,0.2,0.4,0.3s0.2,0.3,0.3,0.4l10.6,12.6c0.1,0.2,0.3,0.4,0.4,0.5
				c0.1,0.1,0.3,0.2,0.5,0.3c0.2,0.1,0.4,0.1,0.7,0.2c0.3,0,0.6,0.1,0.9,0.1h2v-14.6h4.8v32.2h-4.8V762.1z"/>
			<path fill="#170039" d="M1355,702.9l0-3.9h20v32.2h-20v-3.9h15.2v-10.2H1358v-3.7h12.2v-10.5H1355z"/>
			<path fill="#170039" d="M1352,654.2h4.3c0.9,0,1.5,0.3,1.9,1l8,11.2c0.3,0.4,0.5,0.6,0.8,0.8c0.3,0.2,0.7,0.2,1.3,0.2h3.1v-13.2
				h4.8v32.2h-9.3c-2.1,0-3.9-0.2-5.4-0.6c-1.5-0.4-2.7-1-3.7-1.8c-1-0.8-1.7-1.7-2.2-2.8c-0.5-1.1-0.7-2.3-0.7-3.7
				c0-1.1,0.2-2.2,0.5-3.2c0.3-1,0.8-1.9,1.5-2.7c0.7-0.8,1.5-1.5,2.4-2s2-1,3.3-1.3c-0.6-0.4-1.1-0.9-1.5-1.5L1352,654.2z
				 M1367,670.8c-1.2,0-2.3,0.1-3.2,0.4c-0.9,0.3-1.7,0.7-2.3,1.3c-0.6,0.5-1.1,1.2-1.4,2c-0.3,0.8-0.5,1.6-0.5,2.5
				c0,1.9,0.6,3.3,1.8,4.2s3,1.4,5.5,1.4h4.5v-11.8H1367z"/>
		</g>
	</g>
	<polygon fill="#FF78DD" points="1149.2,576 1142.1,556.4 1154.6,556.4 	"/>
	<path fill="#5ED6E7" d="M1092.6,704.4c0,0-41.1,2.3-43.3,28.1L1092.6,704.4z"/>
	<path fill="#5ED6E7" d="M1123,663.3c0,0,41.1,2.3,43.3,28.1L1123,663.3z"/>
	<path fill="#4160FA" d="M1203.6,570.5c-11.4-39.5-127.9-44.6-127.9-44.6l-4.8,22.5c-9.5,48.7,0,155.9,0,155.9l16.4-3.8
		c0,0-13.4-103.4,11.3-148.8c25.3,3.7,60.8,10.8,73.9,22.5c21.3,19-37.3,82.9-37.3,82.9l7.6,6.1
		C1142.8,663.3,1215,610.1,1203.6,570.5z"/>
	<path fill="#4160FA" d="M1070.9,704.4c0,0-3.3-11-18.2-14.2V689c0,0,16.4-3,25.7,5.6L1070.9,704.4z"/>
	<path fill="#4160FA" d="M1073.7,697.4c0,0,7.2-13.7,24.5-17.7v1.8c0,0-14.1,5.8-10.9,19.1L1073.7,697.4z"/>
	<circle fill="#4160FA" cx="1051.3" cy="689" r="5.8"/>
	<circle fill="#4160FA" cx="1097.3" cy="679.7" r="5.8"/>
	<path fill="#4160FA" d="M1136.4,656.4c0,0,4.6-6.8-0.4-16.6l0.6-0.5c0,0,9.1,7.7,8.6,16.8L1136.4,656.4z"/>
	<path fill="#4160FA" d="M1138.7,654.3c0,0,10.9-2.2,21,5.6l-1,0.8c0,0-9.7-5.2-15.6,2.6L1138.7,654.3z"/>
	
		<ellipse transform="matrix(0.7739 -0.6333 0.6333 0.7739 -147.5395 863.8402)" fill="#4160FA" cx="1136" cy="638.5" rx="4.2" ry="4.2"/>
	
		<ellipse transform="matrix(0.7739 -0.6333 0.6333 0.7739 -155.1539 885.2137)" fill="#4160FA" cx="1162.1" cy="659.9" rx="4.2" ry="4.2"/>
	<circle fill="#FF78DD" cx="1054.4" cy="544.6" r="7"/>
	<circle fill="#FF78DD" cx="1110.1" cy="563.4" r="7"/>
	<circle fill="#FF78DD" cx="1149.2" cy="576" r="7"/>
	<path fill="#FFE01A" d="M987.3,478.8c0,0-4.3-0.5-4.8-4.6c-0.5-4.1-9.4-15.7-18.8-9.9c-9.4,5.8-2.3,19,23.6,19.8V478.8z"/>
	<path fill="#FFE01A" d="M1246.6,471.4c0,0,3.5-2.5,2-6.3c-1.5-3.8,0.6-18.3,11.7-17.7c11,0.6,11.2,15.6-11.1,28.7L1246.6,471.4z"/>
	<path fill="#FF78DD" d="M1057.6,544.1c0,0,34.1-84.8,39.7-97c0,0-57.5,55.3-110,39.4v-9.8c0,0,50.6,5.3,98.7-43.3
		s92.2-2.3,106.7,29.7s42.6,18.9,52.5,6l7.6,8.4c0,0-38.7,35-66.2,7.6c-12.9-12.9-22.4-27.4-22.4-27.4l-9.5,79.6l-31.6-4.6
		l-13.3,30.7l-6.6-33.6l-21.9-3.2L1057.6,544.1z"/>
	<path fill="#FF78DD" d="M1123.1,422.7c-1-2.5-15.2-31.4-15.2-31.4l76.6,21l-36.1,18.6L1123.1,422.7z"/>
	<path fill="#FF78DD" d="M987.3,476.7c0,0,14.1-5.1,16.5-11l1.3,2.3c0,0-0.6,7.2-9.9,12.5L987.3,476.7z"/>
	<circle fill="#FF78DD" cx="1004.9" cy="466.1" r="4.4"/>
	<path fill="#FF78DD" d="M987.3,486.1c0,0,14.1,5.1,16.5,11l1.3-2.3c0,0-0.6-7.2-9.9-12.5L987.3,486.1z"/>
	<circle fill="#FF78DD" cx="1004.9" cy="496.7" r="4.4"/>
	<path fill="#70FAFF" d="M1154.6,537.3l9.5-79.6c0,0,9.5,14.4,22.4,27.4c27.4,27.4,66.2-7.6,66.2-7.6l-7.6-8.4
		c-9.9,12.9-38,25.9-52.5-6c-8.3-18.4-26.4-41.5-49.4-48.6l-33.5,149l13.3-30.7L1154.6,537.3z"/>
	<path fill="#FFE01A" d="M1137.5,413.2v-16.6c0,0-16.7-8.5-10.6-46.1c6.1-37.6,62.4-21.7,54.4,11.8c-8,33.5-29.7,36.5-29.7,36.5
		l-5.9,16.5L1137.5,413.2z"/>
	<path fill="#FF78DD" d="M1179.3,344.8c0,0,0.4-31,36.9-39.1l-3.3-2.6c0,0-35.4,0.8-49.7,36.9L1179.3,344.8z"/>
	<path fill="#FF78DD" d="M1140.7,343.2c0,0,10.2-29.6-20.7-50.7l4.9-0.5c0,0,32.6,13.8,32.5,52.6L1140.7,343.2z"/>
	<path fill="#70FAFF" d="M1170,341.9c0,0,11.9-24.8,44.9-7.4c33,17.3,4.1,68,4.1,68l-5.6-5.9c0,0,16.2-30.1,2.5-44.3
		c-13.7-14.2-27.4-4.6-27.4-4.6L1170,341.9z"/>
	<path fill="#70FAFF" d="M1148.7,337.8c0,0-1.8-27.5-38.9-23.7s-29.2,61.6-29.2,61.6l7.4-3.4c0,0-3.8-34,14.2-42.1
		c18-8.1,27.1,6,27.1,6L1148.7,337.8z"/>
	<path fill="#70FAFF" d="M1148.7,343.9c0,0,11.5-44.7,13-58.9h2.6c0,0,9.4,47.4,3,58.9C1160.8,355.4,1148.7,343.9,1148.7,343.9z"/>
	<path fill="#4160FA" d="M1126.8,350.5c0,0,37.4,2.5,54.4,11.8l7.4-14.6c0,0-41.3-14.7-61.7-13.2V350.5z"/>
	<circle fill="#70FAFF" cx="1219.4" cy="403.9" r="10.6"/>
	<circle fill="#70FAFF" cx="1164.3" cy="279.8" r="10.6"/>
	<circle fill="#70FAFF" cx="1086.2" cy="375.8" r="10.6"/>
	<circle fill="#FF78DD" cx="1120" cy="292.5" r="10.6"/>
	<circle fill="#FF78DD" cx="1216.2" cy="305.7" r="10.6"/>
	<ellipse fill="#A7A9AC" cx="1113.5" cy="761" rx="64.3" ry="4"/>
	<circle fill="#70FAFF" cx="1307.2" cy="382.2" r="16.8"/>
	<circle fill="#FF78DD" cx="1281.7" cy="303.1" r="16.8"/>
	<circle fill="#4160FA" cx="1230.7" cy="229.1" r="16.8"/>
	<circle fill="#70FAFF" cx="1148.7" cy="217.1" r="16.8"/>
	<circle fill="#FF78DD" cx="1053.3" cy="262.7" r="16.8"/>
	<circle fill="#4160FA" cx="1009.3" cy="340.7" r="16.8"/>
	<circle fill="#70FAFF" cx="987.3" cy="415.3" r="16.8"/>
</g>
<g>
	<path fill="#FFFFFF" d="M2019.2,898.1h-464.6c-22.5,0-40.7-18.2-40.7-40.7V92.6c0-22.5,18.2-40.7,40.7-40.7h464.6
		c22.5,0,40.7,18.2,40.7,40.7v764.8C2059.9,879.9,2041.7,898.1,2019.2,898.1z"/>
	<g>
		<g>
			<path fill="#170039" d="M1562.8,105.1c0,1.8-0.2,3.4-0.7,4.8c-0.4,1.4-1.1,2.7-2,3.6c-0.9,1-1.9,1.8-3.2,2.3
				c-1.3,0.5-2.7,0.8-4.4,0.8c-1.5,0-3-0.2-4.6-0.6l0.3-2.8c0-0.3,0.1-0.5,0.3-0.7c0.2-0.2,0.4-0.3,0.8-0.3c0.3,0,0.6,0.1,1,0.2
				c0.4,0.1,1,0.2,1.7,0.2c1,0,1.8-0.1,2.5-0.4c0.7-0.3,1.4-0.7,1.9-1.3s0.9-1.4,1.2-2.3s0.4-2.1,0.4-3.4V84.1h4.8V105.1z"/>
			<path fill="#170039" d="M1572.9,145.1c0,2.4-0.4,4.6-1.2,6.6c-0.8,2-1.9,3.7-3.3,5.2c-1.4,1.5-3.1,2.6-5,3.4
				c-2,0.8-4.1,1.2-6.5,1.2c-2.4,0-4.5-0.4-6.5-1.2c-2-0.8-3.6-1.9-5-3.4c-1.4-1.5-2.5-3.2-3.3-5.2c-0.8-2-1.2-4.2-1.2-6.6
				c0-2.4,0.4-4.6,1.2-6.6s1.9-3.8,3.3-5.2c1.4-1.5,3.1-2.6,5-3.4c2-0.8,4.1-1.2,6.5-1.2c2.4,0,4.6,0.4,6.5,1.2c2,0.8,3.6,2,5,3.4
				c1.4,1.5,2.5,3.2,3.3,5.2S1572.9,142.7,1572.9,145.1z M1568,145.1c0-1.9-0.3-3.6-0.8-5.2c-0.5-1.5-1.3-2.8-2.2-3.9
				c-1-1.1-2.1-1.9-3.5-2.4s-2.9-0.9-4.6-0.9c-1.7,0-3.2,0.3-4.6,0.9c-1.4,0.6-2.5,1.4-3.5,2.4s-1.7,2.4-2.2,3.9
				c-0.5,1.5-0.8,3.2-0.8,5.2c0,1.9,0.3,3.7,0.8,5.2s1.3,2.8,2.2,3.9c1,1.1,2.1,1.9,3.5,2.4c1.4,0.6,2.9,0.8,4.6,0.8
				c1.7,0,3.2-0.3,4.6-0.8c1.4-0.6,2.5-1.4,3.5-2.4c1-1.1,1.7-2.4,2.2-3.9S1568,147,1568,145.1z"/>
			<path fill="#170039" d="M1550.7,187.8h1.6c0.6,0,1-0.1,1.4-0.2s0.7-0.4,1-0.7l10.2-11.9c0.3-0.4,0.7-0.7,1-0.8
				c0.3-0.2,0.8-0.2,1.3-0.2h4.1l-11.9,13.7c-0.3,0.4-0.6,0.7-0.9,0.9s-0.6,0.4-0.9,0.6c0.8,0.3,1.5,0.9,2.2,1.7l12.4,15.2h-4.1
				c-0.3,0-0.6,0-0.8-0.1s-0.4-0.1-0.6-0.2c-0.2-0.1-0.3-0.2-0.4-0.3s-0.2-0.3-0.3-0.4l-10.6-12.6c-0.2-0.2-0.3-0.4-0.4-0.5
				c-0.1-0.1-0.3-0.2-0.5-0.3s-0.4-0.1-0.7-0.2c-0.3,0-0.6-0.1-0.9-0.1h-2v14.6h-4.8v-32.2h4.8V187.8z"/>
			<path fill="#170039" d="M1567.9,247l0,3.9h-20v-32.2h20v3.9h-15.2v10.2h12.2v3.7h-12.2V247H1567.9z"/>
			<path fill="#170039" d="M1570.9,295.8h-4.3c-0.9,0-1.5-0.3-1.9-1l-8-11.2c-0.3-0.4-0.5-0.6-0.8-0.8c-0.3-0.2-0.7-0.2-1.3-0.2
				h-3.1v13.2h-4.8v-32.2h9.3c2.1,0,3.9,0.2,5.4,0.6s2.7,1,3.7,1.8c1,0.8,1.7,1.7,2.2,2.8c0.5,1.1,0.7,2.3,0.7,3.7
				c0,1.1-0.2,2.2-0.5,3.2c-0.3,1-0.8,1.9-1.5,2.7c-0.7,0.8-1.5,1.5-2.4,2s-2,1-3.3,1.3c0.6,0.4,1.1,0.9,1.5,1.5L1570.9,295.8z
				 M1555.9,279.1c1.2,0,2.3-0.1,3.2-0.4c0.9-0.3,1.7-0.7,2.3-1.3c0.6-0.5,1.1-1.2,1.4-2s0.5-1.6,0.5-2.5c0-1.9-0.6-3.3-1.8-4.2
				s-3-1.4-5.5-1.4h-4.5v11.8H1555.9z"/>
		</g>
		<g>
			<path fill="#170039" d="M2011.1,844.8c0-1.8,0.2-3.4,0.7-4.8c0.4-1.4,1.1-2.7,2-3.6s1.9-1.8,3.2-2.3c1.3-0.5,2.7-0.8,4.4-0.8
				c1.5,0,3,0.2,4.6,0.6l-0.3,2.8c0,0.3-0.1,0.5-0.3,0.7c-0.2,0.2-0.4,0.3-0.8,0.3c-0.3,0-0.6-0.1-1-0.2c-0.4-0.1-1-0.2-1.7-0.2
				c-1,0-1.8,0.1-2.5,0.4c-0.7,0.3-1.4,0.7-1.9,1.3c-0.5,0.6-0.9,1.4-1.2,2.3c-0.3,0.9-0.4,2.1-0.4,3.4v21.1h-4.8V844.8z"/>
			<path fill="#170039" d="M2000.9,804.8c0-2.4,0.4-4.6,1.2-6.6c0.8-2,1.9-3.7,3.3-5.2c1.4-1.5,3.1-2.6,5-3.4c2-0.8,4.1-1.2,6.5-1.2
				c2.4,0,4.5,0.4,6.5,1.2c2,0.8,3.6,1.9,5,3.4c1.4,1.5,2.5,3.2,3.3,5.2c0.8,2,1.2,4.2,1.2,6.6c0,2.4-0.4,4.6-1.2,6.6
				s-1.9,3.8-3.3,5.2c-1.4,1.5-3.1,2.6-5,3.4c-2,0.8-4.1,1.2-6.5,1.2c-2.4,0-4.6-0.4-6.5-1.2c-2-0.8-3.6-2-5-3.4
				c-1.4-1.5-2.5-3.2-3.3-5.2C2001.3,809.4,2000.9,807.2,2000.9,804.8z M2005.8,804.8c0,1.9,0.3,3.6,0.8,5.2
				c0.5,1.5,1.3,2.8,2.2,3.9s2.1,1.9,3.5,2.4c1.4,0.6,2.9,0.9,4.6,0.9s3.2-0.3,4.6-0.9c1.4-0.6,2.5-1.4,3.5-2.4
				c1-1.1,1.7-2.4,2.2-3.9c0.5-1.5,0.8-3.2,0.8-5.2c0-1.9-0.3-3.7-0.8-5.2s-1.3-2.8-2.2-3.9c-1-1.1-2.1-1.9-3.5-2.4
				c-1.4-0.6-2.9-0.8-4.6-0.8s-3.2,0.3-4.6,0.8c-1.4,0.6-2.5,1.4-3.5,2.4c-1,1.1-1.7,2.4-2.2,3.9S2005.8,802.9,2005.8,804.8z"/>
			<path fill="#170039" d="M2023.2,762.1h-1.6c-0.6,0-1,0.1-1.4,0.2s-0.7,0.4-1,0.7L2009,775c-0.3,0.4-0.7,0.7-1,0.8
				c-0.3,0.2-0.8,0.2-1.3,0.2h-4.1l11.9-13.7c0.3-0.4,0.6-0.7,0.9-0.9c0.3-0.2,0.6-0.4,0.9-0.6c-0.8-0.3-1.5-0.9-2.2-1.7l-12.4-15.2
				h4.1c0.3,0,0.6,0,0.8,0.1s0.4,0.1,0.6,0.2c0.2,0.1,0.3,0.2,0.4,0.3s0.2,0.3,0.3,0.4l10.6,12.6c0.1,0.2,0.3,0.4,0.4,0.5
				c0.2,0.1,0.3,0.2,0.5,0.3c0.2,0.1,0.4,0.1,0.7,0.2c0.3,0,0.6,0.1,0.9,0.1h2v-14.6h4.8v32.2h-4.8V762.1z"/>
			<path fill="#170039" d="M2005.9,702.9l0-3.9h20v32.2h-20v-3.9h15.2v-10.2h-12.2v-3.7h12.2v-10.5H2005.9z"/>
			<path fill="#170039" d="M2002.9,654.2h4.3c0.9,0,1.5,0.3,1.9,1l8,11.2c0.3,0.4,0.5,0.6,0.8,0.8c0.3,0.2,0.7,0.2,1.3,0.2h3.1
				v-13.2h4.8v32.2h-9.3c-2.1,0-3.9-0.2-5.4-0.6c-1.5-0.4-2.7-1-3.7-1.8c-1-0.8-1.7-1.7-2.2-2.8c-0.5-1.1-0.7-2.3-0.7-3.7
				c0-1.1,0.2-2.2,0.5-3.2c0.3-1,0.8-1.9,1.5-2.7c0.7-0.8,1.5-1.5,2.4-2c1-0.6,2-1,3.3-1.3c-0.6-0.4-1.1-0.9-1.5-1.5L2002.9,654.2z
				 M2018,670.8c-1.2,0-2.3,0.1-3.2,0.4c-0.9,0.3-1.7,0.7-2.3,1.3c-0.6,0.5-1.1,1.2-1.4,2c-0.3,0.8-0.5,1.6-0.5,2.5
				c0,1.9,0.6,3.3,1.8,4.2c1.2,0.9,3,1.4,5.5,1.4h4.5v-11.8H2018z"/>
		</g>
	</g>
	<g>
		<path fill="#FFE01A" d="M1869.1,449.2c5.5,62.6-84.6,199.8-84.6,199.8l-13.1-88.5c52.8-32.1,55.8-95.1,55.8-95.1
			c-20,61.6-70.7,75.1-70.7,75.1l-20.2-41.9l-70.9,49.7l58.5-174.9l111.9-24.2C1835.8,349.2,1862.1,369.7,1869.1,449.2z"/>
		<polygon fill="#FFFFFF" points="1747.3,467.9 1810.2,389.1 1779.5,464.4 		"/>
		
			<ellipse transform="matrix(0.1735 -0.9848 0.9848 0.1735 1018.3898 2108.4724)" fill="#FFE01A" cx="1765.4" cy="447.5" rx="9.8" ry="9.8"/>
		<path fill="#FD2BC9" d="M1741.8,313.5c9.9,16.3,39.3,52.1,67.1,15.7c39.7-51.9,72-82.2,92.9-76.3c35.8,10.1,35.5,120.4,66.1,133.4
			c0,0-46.3,3.3-80-61.6c-12.6-24.1-37.4,46.2-37.4,46.2l-135.2,28.3c0,0,0.7-35-8.1-37.3c-8.8-2.3-17.1,79.7-69.9,92.6
			c0,0,21.7-21.2,16.4-92.9C1649.6,306.4,1706.9,255.9,1741.8,313.5z"/>
		
			<ellipse transform="matrix(0.1735 -0.9848 0.9848 0.1735 1247.6652 2262.0386)" fill="#70FAFF" cx="1971.5" cy="387.7" rx="19.6" ry="19.6"/>
		
			<ellipse transform="matrix(0.1735 -0.9848 0.9848 0.1735 904.1712 1985.3896)" fill="#FD2BC9" cx="1635" cy="454" rx="19.6" ry="19.6"/>
		<path fill="#4160FA" d="M1816.8,448.8l-3.2-20.5l19,8.5c4.5,2,7.2,6.8,6.5,11.7v0c-0.8,6.2-6.5,10.5-12.6,9.6l0,0
			C1821.5,457.6,1817.5,453.7,1816.8,448.8z"/>
		<path fill="#70FAFF" d="M1888.3,334c33.8,64.9,79.7,52.3,79.7,52.3c-30.6-13.1-30.3-123.3-66.1-133.4
			c-19.4-5.5-47.5,1.5-88.6,62.3c-33.2,49.2-98,84-98,84l135.2-28.3C1850.5,370.9,1875.7,309.9,1888.3,334z"/>
		<path fill="#FD2BC9" d="M1784.5,648.9c0,0-22.9,35,3.5,48c26.4,13.1,50.3-55.6,26.6-98L1784.5,648.9z"/>
		<path fill="#5571FA" d="M1809.2,607.9c0,0,6.9,66.3,45.8,49.8c38.9-16.4-29.4-78.9-29.4-78.9L1809.2,607.9z"/>
		<path fill="#FD2BC9" d="M1822.8,584.4c0,0,31,41.5,62.4,15.6s-45-49.9-45-49.9L1822.8,584.4z"/>
		<path fill="#5571FA" d="M1836.1,557.9c0,0,48.8,21.3,75.1-6.2c26.3-27.5-5.3-52.3-32.8-44.1c-27.5,8.2-24.9,11.9-24.9,11.9
			L1836.1,557.9z"/>
	</g>
</g>
<g>
	<path fill="#FFFFFF" d="M698.8,1820.2H234.2c-22.5,0-40.7-18.2-40.7-40.7v-764.8c0-22.5,18.2-40.7,40.7-40.7h464.6
		c22.5,0,40.7,18.2,40.7,40.7v764.8C739.5,1801.9,721.3,1820.2,698.8,1820.2z"/>
	<g>
		<g>
			<path fill="#170039" d="M242.4,1027.2c0,1.8-0.2,3.4-0.7,4.8c-0.4,1.4-1.1,2.7-2,3.6c-0.9,1-1.9,1.8-3.2,2.3s-2.7,0.8-4.4,0.8
				c-1.5,0-3-0.2-4.6-0.6l0.3-2.8c0-0.3,0.1-0.5,0.3-0.7c0.2-0.2,0.4-0.3,0.8-0.3c0.3,0,0.6,0.1,1,0.2c0.4,0.1,1,0.2,1.7,0.2
				c1,0,1.8-0.1,2.5-0.4c0.7-0.3,1.4-0.7,1.9-1.3s0.9-1.4,1.2-2.3c0.3-0.9,0.4-2.1,0.4-3.4v-21.1h4.8V1027.2z"/>
			<path fill="#170039" d="M252.5,1067.2c0,2.4-0.4,4.6-1.2,6.6c-0.8,2-1.9,3.7-3.3,5.2s-3.1,2.6-5,3.4s-4.1,1.2-6.5,1.2
				c-2.4,0-4.5-0.4-6.5-1.2c-2-0.8-3.6-1.9-5-3.4c-1.4-1.5-2.5-3.2-3.3-5.2c-0.8-2-1.2-4.2-1.2-6.6c0-2.4,0.4-4.6,1.2-6.6
				s1.9-3.8,3.3-5.2c1.4-1.5,3.1-2.6,5-3.4c2-0.8,4.1-1.2,6.5-1.2c2.4,0,4.6,0.4,6.5,1.2c2,0.8,3.6,2,5,3.4c1.4,1.5,2.5,3.2,3.3,5.2
				S252.5,1064.8,252.5,1067.2z M247.6,1067.2c0-1.9-0.3-3.6-0.8-5.2c-0.5-1.5-1.3-2.8-2.2-3.9s-2.1-1.9-3.5-2.4
				c-1.4-0.6-2.9-0.9-4.6-0.9c-1.7,0-3.2,0.3-4.6,0.9c-1.4,0.6-2.5,1.4-3.5,2.4c-1,1.1-1.7,2.4-2.2,3.9c-0.5,1.5-0.8,3.2-0.8,5.2
				c0,1.9,0.3,3.7,0.8,5.2c0.5,1.5,1.3,2.8,2.2,3.9c1,1.1,2.1,1.9,3.5,2.4c1.4,0.6,2.9,0.8,4.6,0.8c1.7,0,3.2-0.3,4.6-0.8
				c1.4-0.6,2.5-1.4,3.5-2.4s1.7-2.4,2.2-3.9S247.6,1069.1,247.6,1067.2z"/>
			<path fill="#170039" d="M230.3,1109.9h1.6c0.6,0,1-0.1,1.4-0.2c0.4-0.1,0.7-0.4,1-0.7l10.2-11.9c0.3-0.4,0.7-0.7,1-0.8
				c0.3-0.2,0.8-0.2,1.3-0.2h4.1l-11.9,13.7c-0.3,0.4-0.6,0.7-0.9,0.9s-0.6,0.4-0.9,0.6c0.8,0.3,1.5,0.9,2.2,1.7l12.4,15.2h-4.1
				c-0.3,0-0.6,0-0.8-0.1s-0.4-0.1-0.6-0.2c-0.2-0.1-0.3-0.2-0.4-0.3c-0.1-0.1-0.2-0.3-0.3-0.4l-10.6-12.6c-0.1-0.2-0.3-0.4-0.4-0.5
				c-0.1-0.1-0.3-0.2-0.5-0.3s-0.4-0.1-0.7-0.2s-0.6-0.1-0.9-0.1h-2v14.6h-4.8v-32.2h4.8V1109.9z"/>
			<path fill="#170039" d="M247.5,1169.1l0,3.9h-20v-32.2h20v3.9h-15.2v10.2h12.2v3.7h-12.2v10.5H247.5z"/>
			<path fill="#170039" d="M250.5,1217.8h-4.3c-0.9,0-1.5-0.3-1.9-1l-8-11.2c-0.3-0.4-0.5-0.6-0.8-0.8c-0.3-0.2-0.7-0.2-1.3-0.2
				h-3.1v13.2h-4.8v-32.2h9.3c2.1,0,3.9,0.2,5.4,0.6c1.5,0.4,2.7,1,3.7,1.8c1,0.8,1.7,1.7,2.2,2.8c0.5,1.1,0.7,2.3,0.7,3.7
				c0,1.1-0.2,2.2-0.5,3.2c-0.3,1-0.8,1.9-1.5,2.7c-0.7,0.8-1.5,1.5-2.4,2c-1,0.6-2,1-3.3,1.3c0.6,0.4,1.1,0.9,1.5,1.5L250.5,1217.8
				z M235.5,1201.2c1.2,0,2.3-0.1,3.2-0.4c0.9-0.3,1.7-0.7,2.3-1.3s1.1-1.2,1.4-2s0.5-1.6,0.5-2.5c0-1.9-0.6-3.3-1.8-4.2
				c-1.2-0.9-3-1.4-5.5-1.4h-4.5v11.8H235.5z"/>
		</g>
		<g>
			<path fill="#170039" d="M690.7,1766.9c0-1.8,0.2-3.4,0.7-4.8c0.4-1.4,1.1-2.7,2-3.6c0.9-1,1.9-1.8,3.2-2.3s2.7-0.8,4.4-0.8
				c1.5,0,3,0.2,4.6,0.6l-0.3,2.8c0,0.3-0.1,0.5-0.3,0.7c-0.2,0.2-0.4,0.3-0.8,0.3c-0.3,0-0.6-0.1-1-0.2c-0.4-0.1-1-0.2-1.7-0.2
				c-1,0-1.8,0.1-2.5,0.4c-0.7,0.3-1.4,0.7-1.9,1.3s-0.9,1.4-1.2,2.3c-0.3,0.9-0.4,2.1-0.4,3.4v21.1h-4.8V1766.9z"/>
			<path fill="#170039" d="M680.5,1726.9c0-2.4,0.4-4.6,1.2-6.6c0.8-2,1.9-3.7,3.3-5.2c1.4-1.5,3.1-2.6,5-3.4c2-0.8,4.1-1.2,6.5-1.2
				c2.4,0,4.5,0.4,6.5,1.2c2,0.8,3.6,1.9,5,3.4c1.4,1.5,2.5,3.2,3.3,5.2c0.8,2,1.2,4.2,1.2,6.6c0,2.4-0.4,4.6-1.2,6.6
				s-1.9,3.8-3.3,5.2c-1.4,1.5-3.1,2.6-5,3.4c-2,0.8-4.1,1.2-6.5,1.2c-2.4,0-4.6-0.4-6.5-1.2c-2-0.8-3.6-2-5-3.4
				c-1.4-1.5-2.5-3.2-3.3-5.2S680.5,1729.3,680.5,1726.9z M685.4,1726.9c0,1.9,0.3,3.6,0.8,5.2s1.3,2.8,2.2,3.9s2.1,1.9,3.5,2.4
				c1.4,0.6,2.9,0.9,4.6,0.9c1.7,0,3.2-0.3,4.6-0.9c1.4-0.6,2.5-1.4,3.5-2.4c1-1.1,1.7-2.4,2.2-3.9c0.5-1.5,0.8-3.2,0.8-5.2
				c0-1.9-0.3-3.7-0.8-5.2c-0.5-1.5-1.3-2.8-2.2-3.9c-1-1.1-2.1-1.9-3.5-2.4c-1.4-0.6-2.9-0.8-4.6-0.8c-1.7,0-3.2,0.3-4.6,0.8
				c-1.4,0.6-2.5,1.4-3.5,2.4c-1,1.1-1.7,2.4-2.2,3.9S685.4,1725,685.4,1726.9z"/>
			<path fill="#170039" d="M702.8,1684.2h-1.6c-0.6,0-1,0.1-1.4,0.2c-0.4,0.1-0.7,0.4-1,0.7l-10.2,11.9c-0.3,0.4-0.7,0.7-1,0.8
				c-0.3,0.2-0.8,0.2-1.3,0.2h-4.1l11.9-13.7c0.3-0.4,0.6-0.7,0.9-0.9c0.3-0.2,0.6-0.4,0.9-0.6c-0.8-0.3-1.5-0.9-2.2-1.7l-12.4-15.2
				h4.1c0.3,0,0.6,0,0.8,0.1s0.4,0.1,0.6,0.2c0.2,0.1,0.3,0.2,0.4,0.3c0.1,0.1,0.2,0.3,0.3,0.4l10.6,12.6c0.1,0.2,0.3,0.4,0.4,0.5
				c0.1,0.1,0.3,0.2,0.5,0.3s0.4,0.1,0.7,0.2s0.6,0.1,0.9,0.1h2v-14.6h4.8v32.2h-4.8V1684.2z"/>
			<path fill="#170039" d="M685.5,1625l0-3.9h20v32.2h-20v-3.9h15.2v-10.2h-12.2v-3.7h12.2V1625H685.5z"/>
			<path fill="#170039" d="M682.5,1576.2h4.3c0.9,0,1.5,0.3,1.9,1l8,11.2c0.3,0.4,0.5,0.6,0.8,0.8c0.3,0.2,0.7,0.2,1.3,0.2h3.1
				v-13.2h4.8v32.2h-9.3c-2.1,0-3.9-0.2-5.4-0.6s-2.7-1-3.7-1.8c-1-0.8-1.7-1.7-2.2-2.8c-0.5-1.1-0.7-2.3-0.7-3.7
				c0-1.1,0.2-2.2,0.5-3.2c0.3-1,0.8-1.9,1.5-2.7c0.7-0.8,1.5-1.5,2.4-2c1-0.6,2-1,3.3-1.3c-0.6-0.4-1.1-0.9-1.5-1.5L682.5,1576.2z
				 M697.6,1592.9c-1.2,0-2.3,0.1-3.2,0.4c-0.9,0.3-1.7,0.7-2.3,1.3c-0.6,0.5-1.1,1.2-1.4,2c-0.3,0.8-0.5,1.6-0.5,2.5
				c0,1.9,0.6,3.3,1.8,4.2c1.2,0.9,3,1.4,5.5,1.4h4.5v-11.8H697.6z"/>
		</g>
	</g>
	<g>
		<ellipse fill="#A7A9AC" cx="450.5" cy="1677.6" rx="65.7" ry="2.7"/>
		<g>
			<circle fill="none" stroke="#5571FA" stroke-width="15.8413" stroke-miterlimit="10" cx="447.7" cy="1611.3" r="57.2"/>
			<path fill="#70FAFF" d="M428.3,1641.1l37-23.7C465.2,1617.4,439.2,1607.5,428.3,1641.1z"/>
			<path fill="#70FAFF" d="M292.7,1543.3l41.2,11.6C333.9,1555,323.7,1529.7,292.7,1543.3z"/>
			<path fill="#FF2BCA" d="M456.6,1493.9c0,0-55.9-18.7-82.1-2.2c-27.4,17.3-38.2,50.8-38.2,50.8l-17.3-4.7c0,0,6.4-41.6,45.6-68.8
				c37.7-26.2,99.5-4.3,109.9,0C485,1473.3,456.6,1493.9,456.6,1493.9z"/>
			<path fill="#FF78DD" d="M447.7,1616c0,0-32.2-48.7-37.3-77.5c-5-28.8,35.3-61.9,58.3-69.1c9.6-3,40.3,9.4,7.2,39.6
				c-33.1,30.2-41.8,33.5-24.1,102.3L447.7,1616z"/>
			<path fill="#FF78DD" d="M524.7,1303.7c0,0,28.6-38.5,44.9-44.3l-2.9-2.9c0,0-39.2,18.7-59.2,37.4L524.7,1303.7z"/>
			<path fill="#FFE01A" d="M511.7,1295c0,0,8.3-47.2,20.2-59.8l-3.9-1.3c0,0-26.6,34.3-36.1,60L511.7,1295z"/>
			<path fill="#FFE01A" d="M515.6,1303.7c0,0,25.2-19.8,47.5-14.9s13,25.8,13,25.8h-6.5c0,0,3.6-10.8-5-16.6
				c-8.6-5.8-32.9,22.3-32.9,22.3L515.6,1303.7z"/>
			<path fill="#FFE01A" d="M502,1301.3c0,0-25.2-19.8-47.5-14.9c-22.3,4.9-13,25.8-13,25.8h6.5c0,0-3.6-10.8,5-16.6
				c8.6-5.8,32.9,22.3,32.9,22.3L502,1301.3z"/>
			<path fill="#5571FA" d="M512.6,1359.2l-7.6-14.4c0,0-13.9,9.4-18.9,0s-9.2-19.4-9.2-19.4l-16,6.5c0,0,19.9-29.5,30.1-38.2
				c10.2-8.6,28.2-5.8,36.9,7.9c8.6,13.7,0,62.6,0,62.6L512.6,1359.2z"/>
			<path fill="#FFE01A" d="M490.2,1489.6c0,0,24.8-34.3,39.9-100.1c0,0-7.6,54.7,37.8,66.8c45.4,12.1,57.4-27.1,57.4-27.1l-11.9-4
				c0,0-18.7,30.9-41.3,16.9s-25.7-30.9-20.3-66.6s-52.9-13-90.7,0c-37.8,13-54.5,30.7-84.2-8.6l-8.6,8.6c0,0,25.3,41,60.2,30.2
				c34.9-10.8,48.6-16.3,48.6-16.3l-43.4,68.5L490.2,1489.6z"/>
			<circle fill="#FFE01A" cx="572.7" cy="1319.4" r="7.9"/>
			<circle fill="#FFE01A" cx="531.7" cy="1233.9" r="7.9"/>
			<circle fill="#FFE01A" cx="442.9" cy="1315.4" r="7.9"/>
			<circle fill="#FF78DD" cx="468.8" cy="1258.7" r="7.9"/>
			<circle fill="#FF78DD" cx="567.2" cy="1258.7" r="7.9"/>
			<path fill="#FF78DD" d="M477.8,1309.3c0,0,15.5-15,31.7-7.6s22.1,18.6,22.1,18.6s2.8-24.5-19-30.4
				C487.2,1283.1,477.8,1309.3,477.8,1309.3z"/>
			<path fill="#FF78DD" d="M507.5,1349.6c0,0-18.5-1.7-38.7,10.3c0,0,24.6-5.8,33.2,0c0,0-15.9,10.6-17.8,25.4
				c0,0,16.8-20.2,31.4-21.1l4.1,25c0,0,7-17.2,8.2-25c0,0,14.4-2.9,31.4,12.5c0,0-11.9-25-29.6-25
				C529.7,1351.8,510,1354.4,507.5,1349.6z"/>
			<path fill="#FF78DD" d="M470.8,1258.7c0,0,31.2,18.1,29,34l-11.2,5.8c0,0-0.8-20.5-17.9-35.6V1258.7z"/>
		</g>
		<path fill="#5571FA" d="M617.2,1426.3c0,0,1.3-11.5,0-16.9c-1.3-5.3,4.1-15.3,13.4-8.7s-6.8,27.8-6.8,27.8L617.2,1426.3z"/>
		<path fill="#5571FA" d="M376,1369.9c0,0-5.1-10.4-5.7-15.9c-0.6-5.5-9-13.1-15.5-3.6s15.8,23.8,15.8,23.8L376,1369.9z"/>
		<path fill="#5571FA" d="M335.1,1295.8c15.2,4.4,28.4,16.3,32.3,20c0.7,0.6,1.7,0.6,2.3-0.1l0,0l1.1-1.2h0c0.6-0.7,0.6-1.7-0.1-2.3
			c-4.1-3.6-16.9-15.8-22.5-30.7c-6.6-17.6-28.8-33.7-38.7-29.1c-0.2,0.1-0.4,0.2-0.5,0.4l-2.3,2.5l-1.1,1.2l-2.3,2.5
			c-0.1,0.2-0.3,0.3-0.3,0.5C299.3,1269.8,317,1290.6,335.1,1295.8z"/>
		<path fill="#FF78DD" d="M383.2,1192.3c12.1-10.3,29.2-14.8,34.5-16c0.9-0.2,1.4-1.1,1.2-2l0,0l-0.4-1.6l0,0
			c-0.2-0.9-1.1-1.4-2-1.2c-5.2,1.4-22.5,5.5-38,2c-18.4-4.1-43.9,5.6-45.5,16.4c0,0.2,0,0.4,0,0.6l0.8,3.3l0.4,1.6l0.8,3.3
			c0.1,0.2,0.1,0.4,0.3,0.6C341.8,1207.9,368.9,1204.5,383.2,1192.3z"/>
		<path fill="#FF78DD" d="M579.7,1185.9c3,15.6-1.5,32.7-3,37.9c-0.3,0.9,0.2,1.8,1.1,2l0,0l1.6,0.4l0,0c0.9,0.2,1.8-0.3,2-1.2
			c1.3-5.3,6.3-22.2,17-34c12.6-14,16.8-41,8.2-47.7c-0.2-0.1-0.4-0.2-0.6-0.3l-3.2-0.9l-1.6-0.4l-3.2-0.9c-0.2-0.1-0.4-0.1-0.6-0.1
			C586.5,1142.1,576.1,1167.4,579.7,1185.9z"/>
		<path fill="#5571FA" d="M636.7,1325.6c3,15.6-1.5,32.7-3,37.9c-0.3,0.9,0.2,1.8,1.1,2l0,0l1.6,0.4h0c0.9,0.2,1.8-0.3,2-1.2
			c1.3-5.3,6.3-22.2,17-34c12.6-14,16.8-41,8.2-47.7c-0.2-0.1-0.4-0.2-0.6-0.3l-3.2-0.9l-1.6-0.4l-3.2-0.9c-0.2-0.1-0.4-0.1-0.6-0.1
			C643.5,1281.9,633.1,1307.2,636.7,1325.6z"/>
		<path fill="#FFE01A" d="M489.8,1149.1c-3.1,15.6-13.8,29.7-17.2,33.9c-0.6,0.7-0.5,1.8,0.3,2.3l0,0l1.3,1h0
			c0.7,0.6,1.8,0.4,2.3-0.3c3.2-4.4,14.3-18.2,28.6-25c17-8.1,31.1-31.5,25.7-41c-0.1-0.2-0.3-0.3-0.4-0.5l-2.6-2.1l-1.3-1l-2.6-2.1
			c-0.2-0.1-0.4-0.2-0.6-0.3C512.7,1111.2,493.5,1130.6,489.8,1149.1z"/>
	</g>
</g>
<g>
	<path fill="#FFFFFF" d="M1368.3,1820.2H903.7c-22.5,0-40.7-18.2-40.7-40.7v-764.8c0-22.5,18.2-40.7,40.7-40.7h464.6
		c22.5,0,40.7,18.2,40.7,40.7v764.8C1409,1801.9,1390.8,1820.2,1368.3,1820.2z"/>
	<g>
		<g>
			<path fill="#170039" d="M911.9,1027.2c0,1.8-0.2,3.4-0.7,4.8c-0.4,1.4-1.1,2.7-2,3.6c-0.9,1-1.9,1.8-3.2,2.3s-2.7,0.8-4.4,0.8
				c-1.5,0-3-0.2-4.6-0.6l0.3-2.8c0-0.3,0.1-0.5,0.3-0.7c0.2-0.2,0.4-0.3,0.8-0.3c0.3,0,0.6,0.1,1,0.2c0.4,0.1,1,0.2,1.7,0.2
				c1,0,1.8-0.1,2.5-0.4c0.7-0.3,1.4-0.7,1.9-1.3s0.9-1.4,1.2-2.3c0.3-0.9,0.4-2.1,0.4-3.4v-21.1h4.8V1027.2z"/>
			<path fill="#170039" d="M922,1067.2c0,2.4-0.4,4.6-1.2,6.6c-0.8,2-1.9,3.7-3.3,5.2s-3.1,2.6-5,3.4s-4.1,1.2-6.5,1.2
				c-2.4,0-4.5-0.4-6.5-1.2c-2-0.8-3.6-1.9-5-3.4c-1.4-1.5-2.5-3.2-3.3-5.2c-0.8-2-1.2-4.2-1.2-6.6c0-2.4,0.4-4.6,1.2-6.6
				s1.9-3.8,3.3-5.2c1.4-1.5,3.1-2.6,5-3.4c2-0.8,4.1-1.2,6.5-1.2c2.4,0,4.6,0.4,6.5,1.2c2,0.8,3.6,2,5,3.4c1.4,1.5,2.5,3.2,3.3,5.2
				S922,1064.8,922,1067.2z M917.1,1067.2c0-1.9-0.3-3.6-0.8-5.2c-0.5-1.5-1.3-2.8-2.2-3.9s-2.1-1.9-3.5-2.4
				c-1.4-0.6-2.9-0.9-4.6-0.9c-1.7,0-3.2,0.3-4.6,0.9c-1.4,0.6-2.5,1.4-3.5,2.4c-1,1.1-1.7,2.4-2.2,3.9c-0.5,1.5-0.8,3.2-0.8,5.2
				c0,1.9,0.3,3.7,0.8,5.2c0.5,1.5,1.3,2.8,2.2,3.9c1,1.1,2.1,1.9,3.5,2.4c1.4,0.6,2.9,0.8,4.6,0.8c1.7,0,3.2-0.3,4.6-0.8
				c1.4-0.6,2.5-1.4,3.5-2.4s1.7-2.4,2.2-3.9S917.1,1069.1,917.1,1067.2z"/>
			<path fill="#170039" d="M899.8,1109.9h1.6c0.6,0,1-0.1,1.4-0.2c0.4-0.1,0.7-0.4,1-0.7l10.2-11.9c0.3-0.4,0.7-0.7,1-0.8
				c0.3-0.2,0.8-0.2,1.3-0.2h4.1l-11.9,13.7c-0.3,0.4-0.6,0.7-0.9,0.9s-0.6,0.4-0.9,0.6c0.8,0.3,1.5,0.9,2.2,1.7l12.4,15.2H917
				c-0.3,0-0.6,0-0.8-0.1s-0.4-0.1-0.6-0.2c-0.2-0.1-0.3-0.2-0.4-0.3c-0.1-0.1-0.2-0.3-0.3-0.4l-10.6-12.6c-0.1-0.2-0.3-0.4-0.4-0.5
				c-0.1-0.1-0.3-0.2-0.5-0.3s-0.4-0.1-0.7-0.2s-0.6-0.1-0.9-0.1h-2v14.6H895v-32.2h4.8V1109.9z"/>
			<path fill="#170039" d="M917,1169.1l0,3.9h-20v-32.2h20v3.9h-15.2v10.2H914v3.7h-12.2v10.5H917z"/>
			<path fill="#170039" d="M920,1217.8h-4.3c-0.9,0-1.5-0.3-1.9-1l-8-11.2c-0.3-0.4-0.5-0.6-0.8-0.8c-0.3-0.2-0.7-0.2-1.3-0.2h-3.1
				v13.2h-4.8v-32.2h9.3c2.1,0,3.9,0.2,5.4,0.6c1.5,0.4,2.7,1,3.7,1.8c1,0.8,1.7,1.7,2.2,2.8c0.5,1.1,0.7,2.3,0.7,3.7
				c0,1.1-0.2,2.2-0.5,3.2c-0.3,1-0.8,1.9-1.5,2.7c-0.7,0.8-1.5,1.5-2.4,2c-1,0.6-2,1-3.3,1.3c0.6,0.4,1.1,0.9,1.5,1.5L920,1217.8z
				 M905,1201.2c1.2,0,2.3-0.1,3.2-0.4c0.9-0.3,1.7-0.7,2.3-1.3s1.1-1.2,1.4-2s0.5-1.6,0.5-2.5c0-1.9-0.6-3.3-1.8-4.2
				c-1.2-0.9-3-1.4-5.5-1.4h-4.5v11.8H905z"/>
		</g>
		<g>
			<path fill="#170039" d="M1360.1,1766.9c0-1.8,0.2-3.4,0.7-4.8c0.4-1.4,1.1-2.7,2-3.6c0.9-1,1.9-1.8,3.2-2.3
				c1.3-0.5,2.7-0.8,4.4-0.8c1.5,0,3,0.2,4.6,0.6l-0.3,2.8c0,0.3-0.1,0.5-0.3,0.7s-0.4,0.3-0.8,0.3c-0.3,0-0.6-0.1-1-0.2
				s-1-0.2-1.7-0.2c-1,0-1.8,0.1-2.5,0.4c-0.7,0.3-1.4,0.7-1.9,1.3c-0.5,0.6-0.9,1.4-1.2,2.3s-0.4,2.1-0.4,3.4v21.1h-4.8V1766.9z"/>
			<path fill="#170039" d="M1350,1726.9c0-2.4,0.4-4.6,1.2-6.6c0.8-2,1.9-3.7,3.3-5.2c1.4-1.5,3.1-2.6,5-3.4c2-0.8,4.1-1.2,6.5-1.2
				c2.4,0,4.5,0.4,6.5,1.2c2,0.8,3.6,1.9,5,3.4c1.4,1.5,2.5,3.2,3.3,5.2c0.8,2,1.2,4.2,1.2,6.6c0,2.4-0.4,4.6-1.2,6.6
				s-1.9,3.8-3.3,5.2c-1.4,1.5-3.1,2.6-5,3.4c-2,0.8-4.1,1.2-6.5,1.2c-2.4,0-4.6-0.4-6.5-1.2c-2-0.8-3.6-2-5-3.4
				c-1.4-1.5-2.5-3.2-3.3-5.2C1350.4,1731.5,1350,1729.3,1350,1726.9z M1354.9,1726.9c0,1.9,0.3,3.6,0.8,5.2s1.3,2.8,2.2,3.9
				s2.1,1.9,3.5,2.4c1.4,0.6,2.9,0.9,4.6,0.9c1.7,0,3.2-0.3,4.6-0.9s2.5-1.4,3.5-2.4c1-1.1,1.7-2.4,2.2-3.9c0.5-1.5,0.8-3.2,0.8-5.2
				c0-1.9-0.3-3.7-0.8-5.2c-0.5-1.5-1.3-2.8-2.2-3.9c-1-1.1-2.1-1.9-3.5-2.4s-2.9-0.8-4.6-0.8c-1.7,0-3.2,0.3-4.6,0.8
				c-1.4,0.6-2.5,1.4-3.5,2.4c-1,1.1-1.7,2.4-2.2,3.9S1354.9,1725,1354.9,1726.9z"/>
			<path fill="#170039" d="M1372.2,1684.2h-1.6c-0.6,0-1,0.1-1.4,0.2c-0.4,0.1-0.7,0.4-1,0.7l-10.2,11.9c-0.3,0.4-0.7,0.7-1,0.8
				c-0.3,0.2-0.8,0.2-1.3,0.2h-4.1l11.9-13.7c0.3-0.4,0.6-0.7,0.9-0.9c0.3-0.2,0.6-0.4,0.9-0.6c-0.8-0.3-1.5-0.9-2.2-1.7l-12.4-15.2
				h4.1c0.3,0,0.6,0,0.8,0.1s0.4,0.1,0.6,0.2c0.2,0.1,0.3,0.2,0.4,0.3c0.1,0.1,0.2,0.3,0.3,0.4l10.6,12.6c0.1,0.2,0.3,0.4,0.4,0.5
				c0.1,0.1,0.3,0.2,0.5,0.3c0.2,0.1,0.4,0.1,0.7,0.2c0.3,0,0.6,0.1,0.9,0.1h2v-14.6h4.8v32.2h-4.8V1684.2z"/>
			<path fill="#170039" d="M1355,1625l0-3.9h20v32.2h-20v-3.9h15.2v-10.2H1358v-3.7h12.2V1625H1355z"/>
			<path fill="#170039" d="M1352,1576.2h4.3c0.9,0,1.5,0.3,1.9,1l8,11.2c0.3,0.4,0.5,0.6,0.8,0.8c0.3,0.2,0.7,0.2,1.3,0.2h3.1v-13.2
				h4.8v32.2h-9.3c-2.1,0-3.9-0.2-5.4-0.6c-1.5-0.4-2.7-1-3.7-1.8c-1-0.8-1.7-1.7-2.2-2.8c-0.5-1.1-0.7-2.3-0.7-3.7
				c0-1.1,0.2-2.2,0.5-3.2c0.3-1,0.8-1.9,1.5-2.7c0.7-0.8,1.5-1.5,2.4-2s2-1,3.3-1.3c-0.6-0.4-1.1-0.9-1.5-1.5L1352,1576.2z
				 M1367,1592.9c-1.2,0-2.3,0.1-3.2,0.4s-1.7,0.7-2.3,1.3c-0.6,0.5-1.1,1.2-1.4,2c-0.3,0.8-0.5,1.6-0.5,2.5c0,1.9,0.6,3.3,1.8,4.2
				c1.2,0.9,3,1.4,5.5,1.4h4.5v-11.8H1367z"/>
		</g>
	</g>
	<g>
		<path fill="#5571FA" d="M1136,1204.1c0,0-95.8,16.6-146.1,51.1c0,0-26.3,185.7,146.1,334.9V1204.1z"/>
		<path fill="#FFE01A" d="M1136,1204.1c0,0,95.8,16.6,146.1,51.1c0,0,26.3,185.7-146.1,334.9V1204.1z"/>
		<path fill="#FFE01A" d="M1062.2,1326c-21,0-39.4,3.6-49.2,9c9.8,5.4,28.2,9,49.2,9c21,0,39.4-3.6,49.2-9
			C1101.6,1329.6,1083.3,1326,1062.2,1326z"/>
		<path fill="#5571FA" d="M1209.8,1326c-21,0-39.4,3.6-49.2,9c9.8,5.4,28.2,9,49.2,9c21,0,39.4-3.6,49.2-9
			C1249.2,1329.6,1230.8,1326,1209.8,1326z"/>
		<path fill="#FFE01A" d="M1037.2,1386.3c0,0,25.9,58.4,98.8,58.4v38.5C1136,1483.2,1045.1,1467.3,1037.2,1386.3z"/>
		<path fill="#5571FA" d="M1234.8,1386.3c0,0-25.9,58.4-98.8,58.4v38.5C1136,1483.2,1226.9,1467.3,1234.8,1386.3z"/>
		<polygon fill="#5571FA" points="1206.4,1393.8 1196.2,1371.7 1206.4,1349.5 1216.6,1371.7 		"/>
		<path fill="#5571FA" d="M1206.4,1285.9c0,5-15.8,15.7-10.9,24.6c2.9,5.4,8,0,8,0v8.7h3h3v-8.7c0,0,5,5.4,8,0
			C1222.2,1301.6,1206.4,1290.9,1206.4,1285.9z"/>
		<path fill="#FFE01A" d="M1056.1,1369.4c-0.2,0.6-0.3,1.2-0.3,1.9c0,3.5,2.9,6.4,6.4,6.4c3.5,0,6.4-2.9,6.4-6.4
			c0-0.7-0.1-1.3-0.3-1.9c3.1-0.4,5.5-3.1,5.5-6.3c0-3.5-2.9-6.4-6.4-6.4c-0.7,0-1.3,0.1-1.9,0.3v-7h-6.6v7
			c-0.6-0.2-1.2-0.3-1.9-0.3c-3.5,0-6.4,2.9-6.4,6.4C1050.6,1366.4,1053,1369,1056.1,1369.4z"/>
		<path fill="#FFE01A" d="M1073.5,1301.3c-1.7-5.6-10.3-4.3-12.9-0.1c-2.7-4.2-11.3-5.5-12.9,0.1c-2.9,9.7,12.9,17.8,12.9,17.8
			S1076.4,1311.1,1073.5,1301.3z"/>
	</g>
</g>
<g>
	<path fill="#FFFFFF" d="M2019.2,1820.2h-464.6c-22.5,0-40.7-18.2-40.7-40.7v-764.8c0-22.5,18.2-40.7,40.7-40.7h464.6
		c22.5,0,40.7,18.2,40.7,40.7v764.8C2059.9,1801.9,2041.7,1820.2,2019.2,1820.2z"/>
	<g>
		<g>
			<path fill="#170039" d="M1562.8,1027.2c0,1.8-0.2,3.4-0.7,4.8c-0.4,1.4-1.1,2.7-2,3.6c-0.9,1-1.9,1.8-3.2,2.3s-2.7,0.8-4.4,0.8
				c-1.5,0-3-0.2-4.6-0.6l0.3-2.8c0-0.3,0.1-0.5,0.3-0.7c0.2-0.2,0.4-0.3,0.8-0.3c0.3,0,0.6,0.1,1,0.2c0.4,0.1,1,0.2,1.7,0.2
				c1,0,1.8-0.1,2.5-0.4c0.7-0.3,1.4-0.7,1.9-1.3s0.9-1.4,1.2-2.3c0.3-0.9,0.4-2.1,0.4-3.4v-21.1h4.8V1027.2z"/>
			<path fill="#170039" d="M1572.9,1067.2c0,2.4-0.4,4.6-1.2,6.6c-0.8,2-1.9,3.7-3.3,5.2c-1.4,1.5-3.1,2.6-5,3.4
				c-2,0.8-4.1,1.2-6.5,1.2c-2.4,0-4.5-0.4-6.5-1.2c-2-0.8-3.6-1.9-5-3.4c-1.4-1.5-2.5-3.2-3.3-5.2c-0.8-2-1.2-4.2-1.2-6.6
				c0-2.4,0.4-4.6,1.2-6.6s1.9-3.8,3.3-5.2c1.4-1.5,3.1-2.6,5-3.4c2-0.8,4.1-1.2,6.5-1.2c2.4,0,4.6,0.4,6.5,1.2c2,0.8,3.6,2,5,3.4
				c1.4,1.5,2.5,3.2,3.3,5.2S1572.9,1064.8,1572.9,1067.2z M1568,1067.2c0-1.9-0.3-3.6-0.8-5.2c-0.5-1.5-1.3-2.8-2.2-3.9
				c-1-1.1-2.1-1.9-3.5-2.4s-2.9-0.9-4.6-0.9c-1.7,0-3.2,0.3-4.6,0.9c-1.4,0.6-2.5,1.4-3.5,2.4s-1.7,2.4-2.2,3.9
				c-0.5,1.5-0.8,3.2-0.8,5.2c0,1.9,0.3,3.7,0.8,5.2s1.3,2.8,2.2,3.9s2.1,1.9,3.5,2.4c1.4,0.6,2.9,0.8,4.6,0.8
				c1.7,0,3.2-0.3,4.6-0.8c1.4-0.6,2.5-1.4,3.5-2.4c1-1.1,1.7-2.4,2.2-3.9S1568,1069.1,1568,1067.2z"/>
			<path fill="#170039" d="M1550.7,1109.9h1.6c0.6,0,1-0.1,1.4-0.2c0.4-0.1,0.7-0.4,1-0.7l10.2-11.9c0.3-0.4,0.7-0.7,1-0.8
				c0.3-0.2,0.8-0.2,1.3-0.2h4.1l-11.9,13.7c-0.3,0.4-0.6,0.7-0.9,0.9s-0.6,0.4-0.9,0.6c0.8,0.3,1.5,0.9,2.2,1.7l12.4,15.2h-4.1
				c-0.3,0-0.6,0-0.8-0.1s-0.4-0.1-0.6-0.2c-0.2-0.1-0.3-0.2-0.4-0.3c-0.1-0.1-0.2-0.3-0.3-0.4l-10.6-12.6c-0.2-0.2-0.3-0.4-0.4-0.5
				c-0.1-0.1-0.3-0.2-0.5-0.3s-0.4-0.1-0.7-0.2s-0.6-0.1-0.9-0.1h-2v14.6h-4.8v-32.2h4.8V1109.9z"/>
			<path fill="#170039" d="M1567.9,1169.1l0,3.9h-20v-32.2h20v3.9h-15.2v10.2h12.2v3.7h-12.2v10.5H1567.9z"/>
			<path fill="#170039" d="M1570.9,1217.8h-4.3c-0.9,0-1.5-0.3-1.9-1l-8-11.2c-0.3-0.4-0.5-0.6-0.8-0.8c-0.3-0.2-0.7-0.2-1.3-0.2
				h-3.1v13.2h-4.8v-32.2h9.3c2.1,0,3.9,0.2,5.4,0.6c1.5,0.4,2.7,1,3.7,1.8s1.7,1.7,2.2,2.8c0.5,1.1,0.7,2.3,0.7,3.7
				c0,1.1-0.2,2.2-0.5,3.2s-0.8,1.9-1.5,2.7c-0.7,0.8-1.5,1.5-2.4,2s-2,1-3.3,1.3c0.6,0.4,1.1,0.9,1.5,1.5L1570.9,1217.8z
				 M1555.9,1201.2c1.2,0,2.3-0.1,3.2-0.4c0.9-0.3,1.7-0.7,2.3-1.3c0.6-0.5,1.1-1.2,1.4-2s0.5-1.6,0.5-2.5c0-1.9-0.6-3.3-1.8-4.2
				c-1.2-0.9-3-1.4-5.5-1.4h-4.5v11.8H1555.9z"/>
		</g>
		<g>
			<path fill="#170039" d="M2011.1,1766.9c0-1.8,0.2-3.4,0.7-4.8c0.4-1.4,1.1-2.7,2-3.6s1.9-1.8,3.2-2.3c1.3-0.5,2.7-0.8,4.4-0.8
				c1.5,0,3,0.2,4.6,0.6l-0.3,2.8c0,0.3-0.1,0.5-0.3,0.7c-0.2,0.2-0.4,0.3-0.8,0.3c-0.3,0-0.6-0.1-1-0.2c-0.4-0.1-1-0.2-1.7-0.2
				c-1,0-1.8,0.1-2.5,0.4c-0.7,0.3-1.4,0.7-1.9,1.3c-0.5,0.6-0.9,1.4-1.2,2.3c-0.3,0.9-0.4,2.1-0.4,3.4v21.1h-4.8V1766.9z"/>
			<path fill="#170039" d="M2000.9,1726.9c0-2.4,0.4-4.6,1.2-6.6c0.8-2,1.9-3.7,3.3-5.2c1.4-1.5,3.1-2.6,5-3.4
				c2-0.8,4.1-1.2,6.5-1.2c2.4,0,4.5,0.4,6.5,1.2c2,0.8,3.6,1.9,5,3.4c1.4,1.5,2.5,3.2,3.3,5.2c0.8,2,1.2,4.2,1.2,6.6
				c0,2.4-0.4,4.6-1.2,6.6s-1.9,3.8-3.3,5.2c-1.4,1.5-3.1,2.6-5,3.4c-2,0.8-4.1,1.2-6.5,1.2c-2.4,0-4.6-0.4-6.5-1.2
				c-2-0.8-3.6-2-5-3.4c-1.4-1.5-2.5-3.2-3.3-5.2C2001.3,1731.5,2000.9,1729.3,2000.9,1726.9z M2005.8,1726.9c0,1.9,0.3,3.6,0.8,5.2
				s1.3,2.8,2.2,3.9s2.1,1.9,3.5,2.4c1.4,0.6,2.9,0.9,4.6,0.9s3.2-0.3,4.6-0.9c1.4-0.6,2.5-1.4,3.5-2.4c1-1.1,1.7-2.4,2.2-3.9
				s0.8-3.2,0.8-5.2c0-1.9-0.3-3.7-0.8-5.2s-1.3-2.8-2.2-3.9c-1-1.1-2.1-1.9-3.5-2.4c-1.4-0.6-2.9-0.8-4.6-0.8s-3.2,0.3-4.6,0.8
				c-1.4,0.6-2.5,1.4-3.5,2.4c-1,1.1-1.7,2.4-2.2,3.9S2005.8,1725,2005.8,1726.9z"/>
			<path fill="#170039" d="M2023.2,1684.2h-1.6c-0.6,0-1,0.1-1.4,0.2c-0.4,0.1-0.7,0.4-1,0.7l-10.2,11.9c-0.3,0.4-0.7,0.7-1,0.8
				c-0.3,0.2-0.8,0.2-1.3,0.2h-4.1l11.9-13.7c0.3-0.4,0.6-0.7,0.9-0.9c0.3-0.2,0.6-0.4,0.9-0.6c-0.8-0.3-1.5-0.9-2.2-1.7l-12.4-15.2
				h4.1c0.3,0,0.6,0,0.8,0.1s0.4,0.1,0.6,0.2c0.2,0.1,0.3,0.2,0.4,0.3c0.1,0.1,0.2,0.3,0.3,0.4l10.6,12.6c0.1,0.2,0.3,0.4,0.4,0.5
				c0.2,0.1,0.3,0.2,0.5,0.3c0.2,0.1,0.4,0.1,0.7,0.2c0.3,0,0.6,0.1,0.9,0.1h2v-14.6h4.8v32.2h-4.8V1684.2z"/>
			<path fill="#170039" d="M2005.9,1625l0-3.9h20v32.2h-20v-3.9h15.2v-10.2h-12.2v-3.7h12.2V1625H2005.9z"/>
			<path fill="#170039" d="M2002.9,1576.2h4.3c0.9,0,1.5,0.3,1.9,1l8,11.2c0.3,0.4,0.5,0.6,0.8,0.8c0.3,0.2,0.7,0.2,1.3,0.2h3.1
				v-13.2h4.8v32.2h-9.3c-2.1,0-3.9-0.2-5.4-0.6c-1.5-0.4-2.7-1-3.7-1.8c-1-0.8-1.7-1.7-2.2-2.8s-0.7-2.3-0.7-3.7
				c0-1.1,0.2-2.2,0.5-3.2c0.3-1,0.8-1.9,1.5-2.7c0.7-0.8,1.5-1.5,2.4-2c1-0.6,2-1,3.3-1.3c-0.6-0.4-1.1-0.9-1.5-1.5L2002.9,1576.2z
				 M2018,1592.9c-1.2,0-2.3,0.1-3.2,0.4c-0.9,0.3-1.7,0.7-2.3,1.3c-0.6,0.5-1.1,1.2-1.4,2c-0.3,0.8-0.5,1.6-0.5,2.5
				c0,1.9,0.6,3.3,1.8,4.2c1.2,0.9,3,1.4,5.5,1.4h4.5v-11.8H2018z"/>
		</g>
	</g>
	<g>
		<path fill="#FF78DD" d="M1776,1440c0,0-89.1,3.1-126.5,98.2c0,0,47-79.1,140.1-82.7L1776,1440z"/>
		<path fill="#FFE01A" d="M1649.4,1538.2c0,0,72-81.6,149.6-61.7l-9.5-21C1789.5,1455.6,1694.4,1455.6,1649.4,1538.2z"/>
		
			<ellipse transform="matrix(0.4465 -0.8948 0.8948 0.4465 -473.4019 2328.1599)" fill="#FF78DD" cx="1645.2" cy="1546.7" rx="18.5" ry="18.5"/>
	</g>
	<g>
		<path fill="#FF78DD" d="M1786,1420.6c0,0-80.9-37.4-157.2,30.6c0,0,77.6-49.4,162.3-10.6L1786,1420.6z"/>
		<path fill="#FFE01A" d="M1628.8,1451.2c0,0,101.1-40.4,161.3,12.4l1-23C1791.1,1440.5,1706.2,1397.7,1628.8,1451.2z"/>
		
			<ellipse transform="matrix(0.8021 -0.5972 0.5972 0.8021 -549.1879 1256.4873)" fill="#FF78DD" cx="1621.2" cy="1456.8" rx="18.5" ry="18.5"/>
	</g>
	<path fill="#FF78DD" d="M1802.3,1446.1c0,0,78.5,42.1,70.1,144c0,0-7.2-91.7-89.1-136.1L1802.3,1446.1z"/>
	<path fill="#FFE01A" d="M1872.4,1590.1c0,0-28.5-105-106.9-121.4l17.8-14.6C1783.3,1454.1,1868.5,1496.1,1872.4,1590.1z"/>
	
		<ellipse transform="matrix(1 -5.036624e-03 5.036624e-03 1 -8.033 9.451)" fill="#FF78DD" cx="1872.4" cy="1599.6" rx="18.5" ry="18.5"/>
	<path fill="#FF78DD" d="M1782.9,1464.5c0,0,38,69.7-18.2,155c0,0,39.5-83,0.1-156.1L1782.9,1464.5z"/>
	<g>
		<path fill="#FF78DD" d="M1865.9,1305.9c0,0,52.1-56.5,135.4-27.6c0,0-78.2-13.7-132.8,45.1L1865.9,1305.9z"/>
		<path fill="#FFE01A" d="M2001.2,1278.4c0,0-93.9,1.2-124.4,63.2l-8.4-18C1868.4,1323.5,1921.9,1261.4,2001.2,1278.4z"/>
		
			<ellipse transform="matrix(0.2447 -0.9696 0.9696 0.2447 276.0763 2915.1904)" fill="#FF78DD" cx="2009.2" cy="1280.4" rx="15.9" ry="15.9"/>
	</g>
	<g>
		<path fill="#FF78DD" d="M1831.3,1288.8c0,0,25.4-72.6,113.3-79c0,0-77.2,18.4-104,94.2L1831.3,1288.8z"/>
		<path fill="#FFE01A" d="M1944.6,1209.7c0,0-85.7,38.4-89.1,107.4l-14.9-13.2C1840.6,1303.9,1865.1,1225.6,1944.6,1209.7z"/>
		
			<ellipse transform="matrix(0.987 -0.1605 0.1605 0.987 -168.6235 329.0511)" fill="#FF78DD" cx="1952.7" cy="1208.4" rx="15.9" ry="15.9"/>
	</g>
	<g>
		<path fill="#FF78DD" d="M1772.8,1286.5c0,0-9.9-76.2,65.7-121.5c0,0-60.7,51.1-50.6,130.8L1772.8,1286.5z"/>
		<path fill="#FFE01A" d="M1838.5,1165c0,0-59.3,72.8-31.4,136l-19.2-5.1C1787.9,1295.8,1774.6,1214.9,1838.5,1165z"/>
		
			<ellipse transform="matrix(0.8099 -0.5866 0.5866 0.8099 -329.771 1302.9973)" fill="#FF78DD" cx="1845.2" cy="1160.2" rx="15.9" ry="15.9"/>
	</g>
	<g>
		<path fill="#FF78DD" d="M1727.4,1272.4c0,0-17.1-74.9-103.7-91.2c0,0,74.6,26.9,92.8,105.2L1727.4,1272.4z"/>
		<path fill="#FFE01A" d="M1623.7,1181.2c0,0,80.9,47.7,76.6,116.7l16.2-11.5C1716.5,1286.3,1701,1205.8,1623.7,1181.2z"/>
		
			<ellipse transform="matrix(0.2697 -0.9629 0.9629 0.2697 44.7541 2416.9348)" fill="#FF78DD" cx="1615.8" cy="1179" rx="15.9" ry="15.9"/>
	</g>
	<path fill="#FFE01A" d="M1764.7,1619.5c0,0,30.1-103.6-20.3-150.8l20.5-5.3C1764.8,1463.4,1807.8,1535.9,1764.7,1619.5z"/>
	<g>
		<path fill="#FF78DD" d="M1807.2,1422.5c0,0,76.2,10.3,100.2,95.1c0,0-33.5-71.9-113.1-83L1807.2,1422.5z"/>
		<path fill="#FFE01A" d="M1907.4,1517.6c0,0-54.8-76.2-123.1-65.8l10-17.2C1794.3,1434.7,1875.9,1442.9,1907.4,1517.6z"/>
		
			<ellipse transform="matrix(0.9348 -0.3552 0.3552 0.9348 -417.2245 778.0111)" fill="#FF78DD" cx="1910.3" cy="1525.3" rx="15.9" ry="15.9"/>
	</g>
	<path fill="#5571FA" d="M1741.9,1335.5"/>
	<path fill="#5571FA" d="M1757.1,1498.2c0,0-89.1-69.8-66.9-229.5c0,0,105-7.1,202.1,40.5
		C1892.3,1309.2,1875.8,1416.4,1757.1,1498.2z"/>
	<path fill="#FFFFFF" d="M1704.7,1352.6c0,0,18.8,50.8,56,69.9c0,0,59.9-9.7,88.8-45.7c0,0-38.5,66.3-91.8,74.4
		C1757.7,1451.2,1705.9,1412.2,1704.7,1352.6z"/>
	<path fill="#FFFFFF" d="M1802.7,1337.5c0,0,36-14,53,19C1855.7,1356.5,1852.7,1305,1802.7,1337.5z"/>
	<path fill="#FFFFFF" d="M1697.7,1313.8c0,0,36-14,53,19C1750.7,1332.8,1747.7,1281.3,1697.7,1313.8z"/>
	
		<ellipse transform="matrix(1 -5.036624e-03 5.036624e-03 1 -8.1219 8.915)" fill="#FF78DD" cx="1766" cy="1617" rx="18.5" ry="18.5"/>
</g>
</svg>
