<?xml version="1.0" encoding="utf-8"?>
<!-- Generator: Adobe Illustrator 21.0.2, SVG Export Plug-In . SVG Version: 6.00 Build 0)  -->
<svg version="1.1" id="Layer_1" xmlns="http://www.w3.org/2000/svg" xmlns:xlink="http://www.w3.org/1999/xlink" x="0px" y="0px"
	 width="2272px" height="1872px" viewBox="0 0 2272 1872" enable-background="new 0 0 2272 1872" xml:space="preserve">
<rect fill="#282C4F" width="2272" height="1872"/>
<g>
	<ellipse fill="#FDFDFF" cx="552.2" cy="523.5" rx="40.1" ry="47.2"/>
	<ellipse fill="#FDFDFF" cx="161.5" cy="523.5" rx="40.1" ry="47.2"/>
	<path fill="#FDFDFF" d="M553.1,531.4c0,174.1-156.7,315.2-196.1,315.2c-39.9,0-196.1-141.1-196.1-315.2s87.8-315.2,196.1-315.2
		S553.1,357.3,553.1,531.4z"/>
	<linearGradient id="SVGID_1_" gradientUnits="userSpaceOnUse" x1="647.5881" y1="319.4085" x2="191.2218" y2="405.1796">
		<stop  offset="0.298" style="stop-color:#508C42"/>
		<stop  offset="1" style="stop-color:#002A0B"/>
	</linearGradient>
	<path fill="url(#SVGID_1_)" d="M611.7,325.4c-5,16.5-19.4,19.9-19.4,19.9c13.7-36.4-94.8-96.8-8.7-94.3
		c-42.2-47.2-114.2-11.6-119.4-31.4c-5.2-19.9,25.1-16.5,25.1-16.5c-96-39.7-119.1,13.2-144,9.9c-24.8-3.3,11.8-31.4,11.8-31.4
		c-41.5,3.1-62.2,13-82.1,24.8c-98.5,81.1-25.5,150.2-25.5,150.2c0.5,0.6,1,1.2,1.5,1.8c36.2-13.4,73.5,12.5,105.9,18.5
		C512,295.6,553.1,531.4,553.1,531.4C669.9,497.1,611.7,325.4,611.7,325.4z"/>
	<g>
		<linearGradient id="SVGID_2_" gradientUnits="userSpaceOnUse" x1="262.0195" y1="203.7311" x2="101.1506" y2="495.0341">
			<stop  offset="0.298" style="stop-color:#508C42"/>
			<stop  offset="1" style="stop-color:#002A0B"/>
		</linearGradient>
		<path fill="url(#SVGID_2_)" d="M250.7,358.2c-0.5-0.6-1-1.2-1.5-1.8c0,0-72.9-69.1,25.5-150.2c19.1-11.4,39-21,77.3-24.4
			c-128.9,11.4-124.8,85.7-150.7,93.9c-26.2,8.3-26.7-23.2-26.7-23.2c-99.3,81.1-79.4,180.4-76.1,223.7
			c3.3,43.4,62.3,55.1,62.3,55.1C186.9,413.8,218.4,370.2,250.7,358.2L250.7,358.2z"/>
	</g>
	<linearGradient id="SVGID_3_" gradientUnits="userSpaceOnUse" x1="297.9903" y1="438.8033" x2="267.9803" y2="493.1457">
		<stop  offset="0" style="stop-color:#414042"/>
		<stop  offset="1" style="stop-color:#000000"/>
	</linearGradient>
	<path fill="url(#SVGID_3_)" d="M198,456.1c0,0,28.7-56.3,53.5-54.1c24.8,2.2,86.5,70.1,97.3,108.7c0,0-67.2-86.4-98.4-87.1
		S198,456.1,198,456.1z"/>
	<linearGradient id="SVGID_4_" gradientUnits="userSpaceOnUse" x1="252.5993" y1="518.3663" x2="287.7625" y2="518.3663">
		<stop  offset="0" style="stop-color:#414042"/>
		<stop  offset="1" style="stop-color:#000000"/>
	</linearGradient>
	<circle fill="url(#SVGID_4_)" cx="270.2" cy="518.4" r="17.6"/>
	
		<linearGradient id="SVGID_5_" gradientUnits="userSpaceOnUse" x1="639.1176" y1="438.8033" x2="609.1076" y2="493.1457" gradientTransform="matrix(-1 0 0 1 1055.2704 0)">
		<stop  offset="0" style="stop-color:#414042"/>
		<stop  offset="1" style="stop-color:#000000"/>
	</linearGradient>
	<path fill="url(#SVGID_5_)" d="M516.2,456.1c0,0-28.7-56.3-53.5-54.1c-24.8,2.2-86.5,70.1-97.3,108.7c0,0,67.2-86.4,98.4-87.1
		S516.2,456.1,516.2,456.1z"/>
	
		<linearGradient id="SVGID_6_" gradientUnits="userSpaceOnUse" x1="593.7266" y1="518.3663" x2="628.8898" y2="518.3663" gradientTransform="matrix(-1 0 0 1 1055.2704 0)">
		<stop  offset="0" style="stop-color:#414042"/>
		<stop  offset="1" style="stop-color:#000000"/>
	</linearGradient>
	<circle fill="url(#SVGID_6_)" cx="444" cy="518.4" r="17.6"/>
	<g>
		<path fill="#B91120" d="M477.4,560.6c0,0-63.6,29.3-120.3,32c-56.7-2.7-120.3-32-120.3-32c-6.2,141.6,45.1,204.9,70.2,227.2
			c6.6,5.9,15.2,6,22,0.4c16.5-13.8,39.9-13.8,56.4,0c6.7,5.6,15.4,5.5,22-0.4C432.3,765.6,483.6,702.3,477.4,560.6z"/>
		<g>
			<path fill="#FFE27C" d="M324.2,607.2v99.8c9.5,0.8,19.3,1.3,29.1,1.4v-97.6C344.2,610.3,334.4,609.1,324.2,607.2z"/>
			<path fill="#FFE27C" d="M445.9,697.7c8.1-22.9,13.4-48.8,15.8-77.1v-34c-9.6,3.7-19.4,7.1-29.1,10.1v104.1
				C437.4,699.7,441.8,698.7,445.9,697.7z"/>
			<path fill="#FFE27C" d="M389.4,707.1v-99.8c-10.2,1.8-20,3.1-29.1,3.6v97.5C370.1,708.4,379.9,707.9,389.4,707.1z"/>
			<path fill="#FFE27C" d="M268.3,697.7c3.9,1,8.2,2,12.8,3V596.5c-9.7-3-19.5-6.4-29.1-10.1v27.7C254,644.9,259.5,673,268.3,697.7z
				"/>
			<path fill="#FFE27C" d="M425.6,702.2V598.7c-10,2.9-19.8,5.3-29.1,7.2v100.5C406.3,705.4,416.1,704,425.6,702.2z"/>
			<path fill="#FFE27C" d="M317.2,706.4V605.9c-9.4-1.9-19.1-4.4-29.1-7.3v103.5C297.6,703.9,307.3,705.3,317.2,706.4z"/>
		</g>
		<g>
			<path fill="#FFE27C" d="M441,710.3c0.5-1.3,1.1-2.7,1.7-4.1c-3.2,0.8-6.5,1.5-10.1,2.3v19.8C435.6,722.5,438.4,716.5,441,710.3z"
				/>
			<path fill="#FFE27C" d="M389.4,769.8v-55c-9.6,0.8-19.3,1.3-29.1,1.3v43.4C370.7,760.1,380.8,763.7,389.4,769.8z"/>
			<path fill="#FFE27C" d="M398.7,772.7c6.7-6,16.8-16.4,26.9-32.4v-30.5c-9.5,1.8-19.3,3.2-29.1,4.2v59.7
				C397.2,773.7,398,773.4,398.7,772.7z"/>
			<path fill="#FFE27C" d="M353.3,759.5v-43.4c-9.8-0.1-19.6-0.6-29.1-1.4v55.4C332.8,763.9,342.9,760.3,353.3,759.5z"/>
			<path fill="#FFE27C" d="M281.1,727.3v-18.9c-3.4-0.7-6.6-1.4-9.6-2.1c0.6,1.5,1.1,2.8,1.7,4.1
				C275.5,716.2,278.2,721.8,281.1,727.3z"/>
			<path fill="#FFE27C" d="M288.1,739.5c10.2,16.4,20.5,27.1,27.4,33.2c0.6,0.5,1.1,0.8,1.8,1V714c-9.8-1-19.6-2.5-29.1-4.3V739.5z"
				/>
		</g>
	</g>
</g>
<g>
	<ellipse fill="#FDFDFF" cx="1312.1" cy="567.1" rx="43.2" ry="50.7"/>
	<ellipse fill="#FDFDFF" cx="891.8" cy="567.1" rx="43.2" ry="50.7"/>
	<path fill="#FDFDFF" d="M1313.2,500.7c0,187.3-168.6,339.1-210.9,339.1c-42.9,0-210.9-151.8-210.9-339.1s94.4-188.3,210.9-188.3
		S1313.2,313.4,1313.2,500.7z"/>
	<g>
		<g>
			<path fill="#B91120" d="M937.4,620.2c10.8,12.8,22.8,23.9,35.4,33.9c12.7,9.9,26,18.6,40.1,25.8c7,3.6,14.2,6.8,21.4,9.7
				c1.8,0.7,3.6,1.5,5.5,2.1l2.8,1l1.4,0.5l0.7,0.3c0.2,0.1,0.2,0.1,0.4,0.1c0.5,0.1,1.1,0.3,1.9,0.4c0.7,0.2,1.6,0.3,2.4,0.4
				c1.7,0.3,3.6,0.5,5.4,0.7c7.6,0.8,15.6,1.2,23.6,1.5c8,0.3,16.1,0.5,24.2,0.5c4,0,8.1,0,12.1,0c4,0,8.1-0.1,12.1-0.2
				c4-0.1,8-0.2,11.9-0.4c3.9-0.2,7.8-0.5,11.4-0.9c1.8-0.2,3.6-0.5,4.9-0.7l0.5-0.1l0.4-0.1l0.3-0.1c0.1,0,0.1,0,0.2,0l0.3-0.1
				l2.8-0.9c3.7-1.2,7.3-2.6,11-4c7.3-2.9,14.4-6.1,21.4-9.7c14-7.2,27.4-15.8,40-25.8c12.6-10,24.6-21.1,35.4-33.9
				c-1.3,4-3.1,7.8-5,11.6c-1.9,3.8-4,7.5-6.2,11.1c-2.2,3.6-4.6,7.1-7.1,10.6c-1.3,1.7-2.5,3.4-3.9,5.1c-1.3,1.7-2.7,3.3-4,5
				c-11,13.1-24,24.7-38.4,34.5c-7.2,4.9-14.7,9.4-22.5,13.2c-1.9,1-3.9,1.9-5.9,2.8c-2,1-4,1.8-6,2.6l-3,1.3l-0.4,0.2l-0.6,0.2
				c-0.4,0.1-0.8,0.3-1.2,0.4l-1.1,0.3l-1,0.3c-2.7,0.7-5,1.2-7.3,1.6c-4.6,0.8-8.9,1.3-13.2,1.7c-4.3,0.4-8.6,0.7-12.8,0.9
				c-4.3,0.2-8.5,0.4-12.7,0.5c-4.2,0.1-8.5,0.1-12.7,0.1c-8.4-0.1-16.9-0.4-25.4-0.9c-8.5-0.6-17-1.4-25.8-2.8
				c-2.2-0.4-4.4-0.8-6.8-1.3c-1.2-0.3-2.4-0.6-3.6-0.9c-1.2-0.3-2.6-0.8-4-1.3l-1.1-0.4l-0.7-0.3l-1.5-0.7l-3-1.4
				c-2-0.9-3.9-1.9-5.9-2.8c-7.8-3.9-15.3-8.4-22.5-13.2c-14.3-9.8-27.3-21.4-38.4-34.5c-5.5-6.6-10.6-13.4-15-20.7
				c-2.2-3.6-4.3-7.3-6.2-11.1C940.5,628,938.7,624.2,937.4,620.2z"/>
		</g>
	</g>
	<g>
		<path fill="#B91120" d="M1175.1,655.2c3.2,1.4,6,3.4,8.8,5.4c1.4,1,2.7,2.1,4,3.2c1.3,1.1,2.5,2.3,3.7,3.5
			c4.8,4.8,9,10.3,12.5,16.2c0.8,1.5,1.8,2.9,2.5,4.5c0.7,1.5,1.5,3.1,2.2,4.6c0.7,1.6,1.3,3.2,1.9,4.8l0.9,2.4l0.7,2.5
			c0.5,1.7,0.9,3.3,1.3,5c0.3,1.7,0.6,3.4,0.8,5.1c0.1,0.9,0.2,1.7,0.3,2.5c0,0.9,0.1,1.7,0.1,2.6c0,1.7,0,3.4-0.1,5.2
			c-3.6-6-6.3-11.8-9.6-17.4l-1.1-2.1l-1.2-2.1c-0.8-1.4-1.5-2.8-2.3-4.2c-1.7-2.7-3.2-5.5-4.9-8.2c-3.3-5.5-6.6-10.9-10-16.4
			C1182,666.7,1178.5,661.2,1175.1,655.2z"/>
	</g>
	<g>
		<path fill="#B91120" d="M1207.8,644.2c2.6,0.9,4.8,2.2,7,3.6c1.1,0.7,2.1,1.5,3.1,2.3c1,0.8,2,1.7,2.9,2.5c3.8,3.5,7,7.6,9.7,12.1
			c1.4,2.2,2.5,4.5,3.5,6.9c0.5,1.2,1,2.4,1.4,3.7l0.6,1.8l0.5,1.9c0.3,1.3,0.6,2.5,0.8,3.8c0.2,1.3,0.3,2.6,0.4,3.9
			c0,0.7,0.1,1.3,0.1,2c0,0.7,0,1.3-0.1,2c-0.1,1.3-0.2,2.6-0.4,4c-3.2-4.3-5.5-8.6-8.1-12.6l-7.3-12.2c-2.4-4-4.8-8.1-7.2-12.3
			C1212.3,653.3,1210,649,1207.8,644.2z"/>
	</g>
	<g>
		<path fill="#B91120" d="M1235.4,633.5c3.2,1,5.9,2.9,8.3,5c2.4,2.1,4.4,4.6,6,7.3c1.7,2.7,2.9,5.7,3.6,8.8
			c0.2,0.8,0.3,1.6,0.5,2.4c0.1,0.8,0.1,1.6,0.2,2.4c0,0.4,0,0.8,0,1.2c0,0.4,0,0.8-0.1,1.2c-0.1,0.8-0.2,1.6-0.4,2.4
			c-2.2-2.6-3.6-5.1-5.3-7.6c-0.7-1.2-1.6-2.4-2.3-3.7c-0.8-1.2-1.5-2.4-2.2-3.7c-1.5-2.4-2.9-4.9-4.3-7.5
			C1238,639.2,1236.6,636.6,1235.4,633.5z"/>
	</g>
	<g>
		<g>
			<path fill="#B91120" d="M1029,655.2c-3.4,6-6.9,11.5-10.3,17c-3.4,5.5-6.8,10.9-10,16.4c-1.7,2.7-3.2,5.5-4.9,8.2
				c-0.8,1.4-1.5,2.8-2.3,4.2l-1.2,2.1l-1.1,2.1c-3.3,5.6-6,11.4-9.6,17.4c-0.1-1.7-0.2-3.4-0.1-5.2c0-0.9,0-1.7,0.1-2.6
				c0.1-0.9,0.2-1.7,0.3-2.5c0.2-1.7,0.5-3.4,0.8-5.1c0.4-1.7,0.8-3.3,1.3-5l0.7-2.5l0.9-2.4c0.6-1.6,1.2-3.2,1.9-4.8
				c0.7-1.6,1.5-3.1,2.2-4.6c0.8-1.5,1.7-3,2.5-4.5c3.5-5.9,7.7-11.3,12.5-16.2c1.2-1.2,2.5-2.4,3.7-3.5c1.3-1.1,2.6-2.2,4-3.2
				C1023,658.6,1025.9,656.6,1029,655.2z"/>
		</g>
	</g>
	<g>
		<g>
			<path fill="#B91120" d="M996.4,644.2c-2.2,4.9-4.6,9.1-6.9,13.4c-2.4,4.2-4.8,8.3-7.2,12.3l-7.3,12.2c-2.6,4.1-4.9,8.3-8.1,12.6
				c-0.2-1.3-0.4-2.6-0.4-4c0-0.7-0.1-1.3-0.1-2c0-0.7,0.1-1.3,0.1-2c0.1-1.3,0.2-2.6,0.4-3.9c0.2-1.3,0.5-2.5,0.8-3.8l0.5-1.9
				l0.6-1.8c0.4-1.2,0.9-2.5,1.4-3.7c1.1-2.4,2.2-4.7,3.5-6.9c2.7-4.4,5.9-8.5,9.7-12.1c1-0.9,1.9-1.7,2.9-2.5
				c1-0.8,2.1-1.6,3.1-2.3C991.6,646.4,993.8,645,996.4,644.2z"/>
		</g>
	</g>
	<g>
		<g>
			<path fill="#B91120" d="M968.7,633.5c-1.2,3.1-2.6,5.8-4,8.4c-1.4,2.6-2.8,5.1-4.3,7.5c-0.8,1.2-1.5,2.5-2.2,3.7
				c-0.7,1.2-1.5,2.4-2.3,3.7c-1.7,2.4-3.1,5-5.3,7.6c-0.2-0.8-0.3-1.6-0.4-2.4c0-0.4-0.1-0.8-0.1-1.2c0-0.4,0-0.8,0-1.2
				c0-0.8,0.1-1.6,0.2-2.4c0.1-0.8,0.3-1.6,0.5-2.4c0.7-3.1,2-6.1,3.6-8.8c1.6-2.7,3.6-5.2,6-7.3
				C962.9,636.3,965.5,634.5,968.7,633.5z"/>
		</g>
	</g>
	<g>
		
			<linearGradient id="SVGID_7_" gradientUnits="userSpaceOnUse" x1="-161.7304" y1="537.7612" x2="-54.8472" y2="537.7612" gradientTransform="matrix(-0.9354 0.3535 0.3535 0.9354 891.5547 103.5116)">
			<stop  offset="0" style="stop-color:#414042"/>
			<stop  offset="1" style="stop-color:#000000"/>
		</linearGradient>
		<path fill="url(#SVGID_7_)" d="M1136.2,595.8c7.4,19.5,36.5,23.2,62.3,13.5c25.7-9.7,46-29.3,38.7-48.8
			c-7.4-19.5-27.3-49.4-53-39.7C1158.4,530.6,1128.9,576.3,1136.2,595.8z"/>
		<path fill="#FDFDFF" d="M1195.9,554.2c1.4,1.6,2.4,3.5,2.9,5.7c1.9,7.5-2.7,15.1-10.2,16.9c-7.5,1.9-15.1-2.7-16.9-10.2
			c-0.6-2.3-0.5-4.6,0-6.7c-9.2,4.5-14.8,11-13.4,16.5c1.9,7.5,15.8,10.5,31.2,6.7c15.4-3.8,26.4-13,24.5-20.5
			C1212.8,557.3,1205.5,554.3,1195.9,554.2z"/>
	</g>
	<g>
		
			<linearGradient id="SVGID_8_" gradientUnits="userSpaceOnUse" x1="-242.2311" y1="585.5867" x2="-135.3519" y2="585.5867" gradientTransform="matrix(0.9284 0.3716 -0.3716 0.9284 1403.7823 94.769)">
			<stop  offset="0" style="stop-color:#414042"/>
			<stop  offset="1" style="stop-color:#000000"/>
		</linearGradient>
		<path fill="url(#SVGID_8_)" d="M1057.1,596.7c-7.7,19.4-37,22.5-62.5,12.3c-25.5-10.2-45.5-30.2-37.7-49.5s28.2-48.9,53.8-38.6
			C1036.2,531.1,1064.8,577.4,1057.1,596.7z"/>
		<path fill="#FDFDFF" d="M998.2,554c-1.4,1.6-2.4,3.5-3,5.6c-2,7.5,2.4,15.1,9.9,17.1c7.5,2,15.1-2.4,17.1-9.9
			c0.6-2.3,0.6-4.6,0.1-6.7c9.1,4.7,14.5,11.2,13.1,16.7c-2,7.5-16,10.2-31.4,6.1c-15.3-4.1-26.1-13.5-24.1-21
			C981.3,556.8,988.6,553.9,998.2,554z"/>
	</g>
	<linearGradient id="SVGID_9_" gradientUnits="userSpaceOnUse" x1="1089.9312" y1="425.0627" x2="764.0753" y2="486.3052">
		<stop  offset="0.298" style="stop-color:#508C42"/>
		<stop  offset="1" style="stop-color:#002A0B"/>
	</linearGradient>
	<path fill="url(#SVGID_9_)" d="M1042.6,359.2c0,0-76.9,5.4-91.9,50.6c-15,45.2-21,82.4-37.6,93.6c-16.6,11.2-34.5,35.9-21.3,63.1
		s2.1,83-43.2,105.2c0,0,6.5-21.5,0-48.9c-6.5-27.4-32.4-40.3-34-64.5c-1.6-24.2,72.6-83.9,46.8-114.6c-25.8-30.7,0-59.7,14.5-77.5
		s60.1-40.3,52.6-62.9c-7.4-22.6,53.1-82.4,89-52.5C1053.5,280.6,1042.6,359.2,1042.6,359.2z"/>
	<linearGradient id="SVGID_10_" gradientUnits="userSpaceOnUse" x1="1542.3616" y1="404.8958" x2="945.3264" y2="517.1046">
		<stop  offset="0.298" style="stop-color:#508C42"/>
		<stop  offset="1" style="stop-color:#002A0B"/>
	</linearGradient>
	<path fill="url(#SVGID_10_)" d="M996.4,352.2c15.6,22,40.6,58.1,105.9,23.7c25.8-13.6,52.1,14,97.4-3.2
		c53.8-20.4,37,56.5,35.7,95.2c-1.2,38.7,35.1,22.1,55.2,46.8c20.2,24.7,13.9,44.6,21.5,66.7c7.6,22.1,57.8,55.3,43.2,90.3
		c-14.6,35,19.3,60.9,54.8,61.7c0,0-40.3-16-22.6-61.7c17.7-45.7-3.2-81.8-3.2-81.8s14.5-8,25.8,25.3c11.3,33.4,43.6,41.1,43.6,41.1
		s-32.3-34.7-14.5-66.4s-32.3-85.3-64.5-114.3c0,0,37.1,2,54.9,24.6c17.7,22.6,56.5,0,56.5,0s-56.5,9.7-59.7-32.3
		c-3.2-42-30.5-24.2-70.9-58.1c-40.4-33.9-40.4-33.9-40.4-33.9s37.1,25.8,62.9,25.8s58.1,12.9,72.6,32.3
		c14.5,19.4,51.6-1.6,51.6-1.6s-50,1.6-59.7-42c-9.7-43.6-32.1-8.1-87-50c-54.9-42-73.7-57.7-109.7-58.5c0,0,45.6-14.5,66.6,9.7
		c21,24.2,60.8,35.4,96.3,20.9c0,0-74.2-24.2-88.7-62.7c-14.5-38.5-89.9-28.8-124.8-38.5s-73.9-37.1-128.7-19.4
		C1011.5,209.6,927.7,255.3,996.4,352.2z"/>
</g>
<g>
	<ellipse fill="#FDFDFF" cx="2059.5" cy="523.5" rx="40.1" ry="47.2"/>
	<ellipse fill="#FDFDFF" cx="1668.8" cy="523.5" rx="40.1" ry="47.2"/>
	<path fill="#FDFDFF" d="M2060.5,531.4c0,174.1-156.7,315.2-196.1,315.2c-39.9,0-196.1-141.1-196.1-315.2s87.8-275.2,196.1-275.2
		S2060.5,357.3,2060.5,531.4z"/>
	<linearGradient id="SVGID_11_" gradientUnits="userSpaceOnUse" x1="1805.334" y1="501.2443" x2="1775.3239" y2="555.5868">
		<stop  offset="0" style="stop-color:#414042"/>
		<stop  offset="1" style="stop-color:#000000"/>
	</linearGradient>
	<path fill="url(#SVGID_11_)" d="M1705.3,518.5c0,0,28.7-56.3,53.5-54.1c24.8,2.2,86.5,70.1,97.3,108.7c0,0-67.2-86.4-98.4-87.1
		C1726.6,485.2,1705.3,518.5,1705.3,518.5z"/>
	<linearGradient id="SVGID_12_" gradientUnits="userSpaceOnUse" x1="1759.9429" y1="580.8073" x2="1795.1061" y2="580.8073">
		<stop  offset="0" style="stop-color:#414042"/>
		<stop  offset="1" style="stop-color:#000000"/>
	</linearGradient>
	<circle fill="url(#SVGID_12_)" cx="1777.5" cy="580.8" r="17.6"/>
	
		<linearGradient id="SVGID_13_" gradientUnits="userSpaceOnUse" x1="-868.226" y1="501.2443" x2="-898.236" y2="555.5868" gradientTransform="matrix(-1 0 0 1 1055.2704 0)">
		<stop  offset="0" style="stop-color:#414042"/>
		<stop  offset="1" style="stop-color:#000000"/>
	</linearGradient>
	<path fill="url(#SVGID_13_)" d="M2023.5,518.5c0,0-28.7-56.3-53.5-54.1c-24.8,2.2-86.5,70.1-97.3,108.7c0,0,67.2-86.4,98.4-87.1
		C2002.3,485.2,2023.5,518.5,2023.5,518.5z"/>
	
		<linearGradient id="SVGID_14_" gradientUnits="userSpaceOnUse" x1="-913.617" y1="580.8073" x2="-878.4538" y2="580.8073" gradientTransform="matrix(-1 0 0 1 1055.2704 0)">
		<stop  offset="0" style="stop-color:#414042"/>
		<stop  offset="1" style="stop-color:#000000"/>
	</linearGradient>
	<circle fill="url(#SVGID_14_)" cx="1951.3" cy="580.8" r="17.6"/>
	<path fill="#B91120" d="M2022.9,594.3c0,0-69.5,63.2-158.5,65c-89-1.8-158.5-65-158.5-65c-6.2,101.9,87.2,189.4,112.2,205.4
		c6.6,4.2,15.2,4.3,22,0.3c7.2-4.3,15.7-6.8,24.3-7.3c8.7,0.6,17.2,3,24.3,7.3c6.7,4.1,15.4,4,22-0.3
		C1935.8,783.7,2029.1,696.2,2022.9,594.3z"/>
	<linearGradient id="SVGID_15_" gradientUnits="userSpaceOnUse" x1="1826.0735" y1="192.3904" x2="1655.252" y2="501.7157">
		<stop  offset="0.298" style="stop-color:#508C42"/>
		<stop  offset="1" style="stop-color:#002A0B"/>
	</linearGradient>
	<path fill="url(#SVGID_15_)" d="M1860.7,135.4c-77.5,103-155.3,133-155.3,133c-26.9-6-36.5-20-36.5-20
		c-45.4,52-14.6,153.6-14.6,153.6c-16-10.4-18-15.7-18-15.7c-16,69.9,32.6,132.1,32.6,132.1c-1.1-43.6,54.1-115.1,105-156
		c50.9-40.8,86.8,0,86.8,0V135.4z"/>
	<linearGradient id="SVGID_16_" gradientUnits="userSpaceOnUse" x1="2099.6343" y1="380.0804" x2="1785.3175" y2="263.1701">
		<stop  offset="0.298" style="stop-color:#508C42"/>
		<stop  offset="1" style="stop-color:#002A0B"/>
	</linearGradient>
	<path fill="url(#SVGID_16_)" d="M2067.1,402c0,0,30.8-101.6-14.6-153.6c0,0-9.7,14-36.5,20c0,0-77.8-30-155.3-133v0v177v50
		c0,0,35.9-40.8,86.8,0c50.9,40.8,106.2,112.3,105,156c0,0,48.6-62.1,32.6-132.1C2085.1,386.3,2083.1,391.6,2067.1,402z"/>
	<g>
		<path fill="#FFE27C" d="M1748.8,696.9c2.8,4.9,5.6,9.6,8.5,14c8.5,2.2,17.4,4.2,26.6,5.9V659c-12.8-4.9-24.6-10.5-35.1-16.1V696.9
			z M1866.5,723.7c11.9,0,23.6-0.5,35.1-1.4v-50.9c-11.2,2.1-23,3.5-35.1,3.8V723.7z M1905.7,721.9c12-1,23.8-2.5,35.1-4.4v-57
			c-11,4-22.7,7.5-35.1,10V721.9z M1744.6,689.2v-48.7c-7.9-4.4-14.9-8.8-21.1-12.9C1727,650.2,1735.1,671.1,1744.6,689.2z
			 M1788,717.5c11.3,1.9,23,3.4,35.1,4.4v-51.4c-12.3-2.6-24.1-6-35.1-10V717.5z M1984.2,640.6v48.8c12.1-23.2,18.3-44,21.1-61.7
			C1999.1,631.8,1992.1,636.2,1984.2,640.6z M1827.2,722.3c11.5,0.9,23.2,1.4,35.1,1.4v-48.4c-12.1-0.3-23.8-1.7-35.1-3.9V722.3z
			 M1827.2,786.5c0.6,0.3,1.3,0.4,2.1,0.4c0.9,0,1.8-0.2,2.5-0.7c8.9-5.4,19.4-8.6,30.5-9.5v-49.1c-11.9,0-23.6-0.5-35.1-1.4V786.5z
			 M1763.4,720c6.7,9.5,13.6,18.3,20.4,26.1v-25.4c-8-1.4-15.8-3.1-23.3-5C1761.5,717.3,1762.4,718.7,1763.4,720z M1945,716.8
			c9.2-1.7,18.1-3.6,26.7-5.9c3-4.7,5.8-9.3,8.4-13.9v-54.2c-10.5,5.7-22.2,11.2-35.1,16.1V716.8z M1905.7,783.8
			c8.3-6.1,21.2-17.5,35.1-32.8v-29.4c-11.3,1.9-23,3.4-35.1,4.4V783.8z M1945,746.2c6.8-7.9,13.8-16.7,20.5-26.2
			c1-1.4,1.9-2.8,2.9-4.2c-7.5,1.9-15.3,3.5-23.4,5V746.2z M1866.5,776.8c11.1,0.9,21.7,4.1,30.6,9.5c0.7,0.4,1.6,0.7,2.5,0.7
			c0.7,0,1.4-0.1,2-0.4v-60.3c-11.5,0.9-23.2,1.3-35.1,1.4V776.8z M1788,750.9c13.8,15.3,26.7,26.8,35.1,32.9V726
			c-12-1-23.8-2.5-35.1-4.4V750.9z"/>
	</g>
</g>
<g>
	<ellipse fill="#FDFDFF" cx="552.2" cy="1403.7" rx="40.1" ry="47.2"/>
	<ellipse fill="#FDFDFF" cx="161.5" cy="1403.7" rx="40.1" ry="47.2"/>
	<path fill="#FDFDFF" d="M553.1,1411.6c0,174.1-156.7,315.2-196.1,315.2c-39.9,0-196.1-141.1-196.1-315.2s87.8-315.2,196.1-315.2
		S553.1,1237.5,553.1,1411.6z"/>
	<linearGradient id="SVGID_17_" gradientUnits="userSpaceOnUse" x1="252.5993" y1="1398.5776" x2="287.7625" y2="1398.5776">
		<stop  offset="0" style="stop-color:#414042"/>
		<stop  offset="1" style="stop-color:#000000"/>
	</linearGradient>
	<circle fill="url(#SVGID_17_)" cx="270.2" cy="1398.6" r="17.6"/>
	
		<linearGradient id="SVGID_18_" gradientUnits="userSpaceOnUse" x1="593.7266" y1="1398.5776" x2="628.8898" y2="1398.5776" gradientTransform="matrix(-1 0 0 1 1055.2704 0)">
		<stop  offset="0" style="stop-color:#414042"/>
		<stop  offset="1" style="stop-color:#000000"/>
	</linearGradient>
	<circle fill="url(#SVGID_18_)" cx="444" cy="1398.6" r="17.6"/>
	<path fill="#B91120" d="M443.9,1550.1c-8.8-84.8-60.8-59.6-86.8-59.6c-26,0-78-25.2-86.8,59.6c-2.7,25.9,4.3,53.3,15.4,78.9
		c29.7,68.7,113,68.7,142.8,0C439.5,1603.4,446.6,1576,443.9,1550.1z"/>
	<path fill="#231F20" d="M357.1,1661.5c-28.6,0-53.4-15.4-66.3-41.1c-13-25.8-18.4-48.7-16.1-68.1c5.2-42.8,22.6-46.4,40-46.4
		c7.2,0,14.9,0.9,22.2,1.8c7.1,0.9,13.8,1.7,20.2,1.7c6.4,0,13.1-0.8,20.2-1.7c7.4-0.9,15-1.8,22.2-1.8c17.4,0,34.8,3.6,40,46.4
		c2.4,19.3-3.1,42.2-16.1,68.1C410.4,1646.2,385.6,1661.5,357.1,1661.5z"/>
	<path fill="#231F20" d="M357.1,1661.5c-28.6,0-53.4-15.4-66.3-41.1c-13-25.8-18.4-48.7-16.1-68.1c5.2-42.8,22.6-46.4,40-46.4
		c7.2,0,14.9,0.9,22.2,1.8c7.1,0.9,13.8,1.7,20.2,1.7c6.4,0,13.1-0.8,20.2-1.7c7.4-0.9,15-1.8,22.2-1.8c17.4,0,34.8,3.6,40,46.4
		c2.4,19.3-3.1,42.2-16.1,68.1C410.4,1646.2,385.6,1661.5,357.1,1661.5z"/>
	<path fill="#FFFFFF" d="M430.3,1594.7c-14.3,25.7-41.7,41.1-73.2,41.1c-31.5,0-58.9-15.4-73.2-41.1c-3.1-5.6-5.8-11-8.1-16.4
		c2.4,13,7.4,27,15,42.1c13,25.7,37.8,41.1,66.3,41.1c28.6,0,53.4-15.4,66.3-41.1c7.6-15.1,12.6-29.2,15-42.1
		C436.1,1583.6,433.4,1589.1,430.3,1594.7z"/>
	<path fill="#FFFFFF" d="M357.1,1548.4c29.7,0,57.4-2.4,80.7-6.6c-6.6-32.8-22.5-35.7-38.3-35.7c-7.2,0-14.9,0.9-22.2,1.8
		c-7.1,0.9-13.8,1.7-20.2,1.7c-6.4,0-13.1-0.8-20.2-1.7c-7.4-0.9-15-1.8-22.2-1.8c-15.8,0-31.7,3-38.3,35.7
		C299.7,1546,327.4,1548.4,357.1,1548.4z"/>
	<linearGradient id="SVGID_19_" gradientUnits="userSpaceOnUse" x1="435.6888" y1="1150.5642" x2="277.7799" y2="1436.5072">
		<stop  offset="0.298" style="stop-color:#508C42"/>
		<stop  offset="1" style="stop-color:#002A0B"/>
	</linearGradient>
	<path fill="url(#SVGID_19_)" d="M498.8,1133.4c-44.8-59.1-104.9-72-145.5-72s-100.7,12.9-145.5,72c-46.6,61.5-53,84-63.3,227.5
		l17.4,20.1c0,0,32.3-97.6,54.3-92.6c0-19.5,10.2-148,137.1-148s137.1,125,137.1,148c28.8,14,54.3,92.6,54.3,92.6l17.4-20.1
		C551.8,1217.5,545.4,1195,498.8,1133.4z"/>
	
		<linearGradient id="SVGID_20_" gradientUnits="userSpaceOnUse" x1="632.6042" y1="1379.4269" x2="610.5384" y2="1419.3839" gradientTransform="matrix(-1 0 0 1 1055.2704 0)">
		<stop  offset="0" style="stop-color:#414042"/>
		<stop  offset="1" style="stop-color:#000000"/>
	</linearGradient>
	<path fill="url(#SVGID_20_)" d="M496.2,1392.1c0,0-21.1-41.4-39.3-39.7c-18.3,1.6-63.6,51.5-71.5,79.9c0,0,49.4-63.5,72.3-64.1
		C480.6,1367.6,496.2,1392.1,496.2,1392.1z"/>
	
		<linearGradient id="SVGID_21_" gradientUnits="userSpaceOnUse" x1="557.3493" y1="1379.4269" x2="535.2835" y2="1419.3839" gradientTransform="matrix(1 0 0 1 -258.6038 0)">
		<stop  offset="0" style="stop-color:#414042"/>
		<stop  offset="1" style="stop-color:#000000"/>
	</linearGradient>
	<path fill="url(#SVGID_21_)" d="M225.2,1392.1c0,0,21.1-41.4,39.3-39.7c18.3,1.6,63.6,51.5,71.5,79.9c0,0-49.4-63.5-72.3-64.1
		C240.8,1367.6,225.2,1392.1,225.2,1392.1z"/>
	<g>
		<linearGradient id="SVGID_22_" gradientUnits="userSpaceOnUse" x1="504.5073" y1="1429.8229" x2="488.3963" y2="1458.9968">
			<stop  offset="0" style="stop-color:#414042"/>
			<stop  offset="1" style="stop-color:#000000"/>
		</linearGradient>
		<polygon fill="url(#SVGID_22_)" points="497,1463.7 490,1456.2 490,1441.2 494,1441.2 494,1454.6 497.1,1458 500.1,1454.9 
			500.1,1433.6 490.3,1433.6 490.3,1429.6 504.1,1429.6 504.1,1456.5 		"/>
	</g>
</g>
<g>
	<ellipse fill="#FDFDFF" cx="1297.6" cy="1413.5" rx="40.1" ry="47.2"/>
	<ellipse fill="#FDFDFF" cx="906.9" cy="1413.5" rx="40.1" ry="47.2"/>
	<path fill="#FDFDFF" d="M1298.6,1421.4c0,174.1-156.7,315.2-196.1,315.2c-39.9,0-196.1-141.1-196.1-315.2
		c0-174.1,87.8-275.2,196.1-275.2C1210.8,1146.2,1298.6,1247.3,1298.6,1421.4z"/>
	<linearGradient id="SVGID_23_" gradientUnits="userSpaceOnUse" x1="1043.4314" y1="1391.2363" x2="1013.4213" y2="1445.5789">
		<stop  offset="0" style="stop-color:#414042"/>
		<stop  offset="1" style="stop-color:#000000"/>
	</linearGradient>
	<path fill="url(#SVGID_23_)" d="M943.4,1408.5c0,0,28.7-56.3,53.5-54.1c24.8,2.2,86.5,70.1,97.3,108.7c0,0-67.2-86.4-98.4-87.1
		C964.7,1375.2,943.4,1408.5,943.4,1408.5z"/>
	<linearGradient id="SVGID_24_" gradientUnits="userSpaceOnUse" x1="998.0404" y1="1423.9506" x2="1033.2036" y2="1423.9506">
		<stop  offset="0" style="stop-color:#414042"/>
		<stop  offset="1" style="stop-color:#000000"/>
	</linearGradient>
	<circle fill="url(#SVGID_24_)" cx="1015.6" cy="1424" r="17.6"/>
	
		<linearGradient id="SVGID_25_" gradientUnits="userSpaceOnUse" x1="-106.3235" y1="1391.2363" x2="-136.3335" y2="1445.5789" gradientTransform="matrix(-1 0 0 1 1055.2704 0)">
		<stop  offset="0" style="stop-color:#414042"/>
		<stop  offset="1" style="stop-color:#000000"/>
	</linearGradient>
	<path fill="url(#SVGID_25_)" d="M1261.6,1408.5c0,0-28.7-56.3-53.5-54.1s-86.5,70.1-97.3,108.7c0,0,67.2-86.4,98.4-87.1
		C1240.4,1375.2,1261.6,1408.5,1261.6,1408.5z"/>
	
		<linearGradient id="SVGID_26_" gradientUnits="userSpaceOnUse" x1="-151.7145" y1="1423.9506" x2="-116.5513" y2="1423.9506" gradientTransform="matrix(-1 0 0 1 1055.2704 0)">
		<stop  offset="0" style="stop-color:#414042"/>
		<stop  offset="1" style="stop-color:#000000"/>
	</linearGradient>
	<circle fill="url(#SVGID_26_)" cx="1189.4" cy="1424" r="17.6"/>
	<path fill="#B91120" d="M1261,1444.1c0,0-69.5,63.2-158.5,65c-89-1.8-158.5-65-158.5-65c-6.2,101.9,87.2,189.4,112.2,205.4
		c6.6,4.2,15.2,4.3,22,0.3c7.2-4.3,15.7-6.8,24.3-7.3c8.7,0.6,17.2,3,24.3,7.3c6.7,4.1,15.4,4,22-0.3
		C1173.9,1633.5,1267.2,1545.9,1261,1444.1z"/>
	<g>
		<path fill="#FFE27C" d="M986.9,1546.7c2.8,4.9,5.6,9.6,8.5,14c8.5,2.2,17.4,4.2,26.6,5.9v-57.8c-12.8-4.9-24.6-10.5-35.1-16.1
			V1546.7z M1104.6,1573.4c11.9,0,23.6-0.5,35.1-1.4v-50.9c-11.2,2.1-23,3.5-35.1,3.8V1573.4z M1143.8,1571.7
			c12-1,23.8-2.5,35.1-4.4v-57c-11,4-22.7,7.5-35.1,10V1571.7z M982.7,1539v-48.7c-7.9-4.4-14.9-8.8-21.1-12.9
			C965.1,1499.9,973.2,1520.9,982.7,1539z M1026.1,1567.2c11.3,1.9,23,3.4,35.1,4.4v-51.4c-12.3-2.6-24.1-6-35.1-10V1567.2z
			 M1222.3,1490.3v48.8c12.1-23.2,18.3-44,21.1-61.7C1237.2,1481.5,1230.2,1485.9,1222.3,1490.3z M1065.3,1572
			c11.5,0.9,23.2,1.4,35.1,1.4V1525c-12.1-0.3-23.8-1.7-35.1-3.9V1572z M1065.3,1636.3c0.6,0.3,1.3,0.4,2.1,0.4
			c0.9,0,1.8-0.2,2.5-0.7c8.9-5.4,19.4-8.6,30.5-9.5v-49.1c-11.9-0.1-23.6-0.5-35.1-1.4V1636.3z M1001.5,1569.8
			c6.7,9.5,13.6,18.3,20.4,26.1v-25.4c-8-1.4-15.8-3.1-23.3-5C999.6,1567,1000.5,1568.4,1001.5,1569.8z M1183.1,1566.5
			c9.2-1.7,18.1-3.6,26.7-5.9c3-4.7,5.8-9.3,8.4-13.9v-54.2c-10.5,5.7-22.2,11.2-35.1,16.1V1566.5z M1143.8,1633.5
			c8.3-6.1,21.2-17.5,35.1-32.8v-29.4c-11.3,1.9-23,3.4-35.1,4.4V1633.5z M1183.1,1596c6.8-7.9,13.8-16.7,20.5-26.2
			c1-1.4,1.9-2.8,2.9-4.2c-7.5,1.9-15.3,3.5-23.4,5V1596z M1104.6,1626.6c11.1,0.9,21.7,4.1,30.6,9.5c0.7,0.4,1.6,0.7,2.5,0.7
			c0.7,0,1.4-0.1,2-0.4V1576c-11.5,0.9-23.2,1.3-35.1,1.4V1626.6z M1026.1,1600.6c13.8,15.3,26.7,26.8,35.1,32.9v-57.8
			c-12-1-23.8-2.5-35.1-4.4V1600.6z"/>
	</g>
	<linearGradient id="SVGID_27_" gradientUnits="userSpaceOnUse" x1="1172.0948" y1="1116.4619" x2="990.2902" y2="1445.6755">
		<stop  offset="0.298" style="stop-color:#508C42"/>
		<stop  offset="1" style="stop-color:#002A0B"/>
	</linearGradient>
	<path fill="url(#SVGID_27_)" d="M1271.2,1205.4c-40.5-58.3-100.9-80.1-137.3-88.3c-18.9-4.2,31.7-24.7,99-48.2
		c-85.7-18-237.6,47.9-299.1,136.4s-124.5,45-160.5,25.5c43.5,159,139.5,177.8,139.5,177.8s-6-71.4,73.5-99.8
		c0,0-59.2-59.6,11.7-109.5c0,0,42.2,57,104.5,72c62.3-15,104.5-72,104.5-72c71,49.9,11.7,109.5,11.7,109.5
		c79.5,28.5,73.5,99.8,73.5,99.8s96-18.9,139.5-177.8C1395.7,1250.4,1332.7,1293.9,1271.2,1205.4z"/>
</g>
<g>
	<ellipse fill="#FDFDFF" cx="2026.4" cy="1413.5" rx="40.1" ry="47.2"/>
	<ellipse fill="#FDFDFF" cx="1635.7" cy="1413.5" rx="40.1" ry="47.2"/>
	<path fill="#FDFDFF" d="M2027.3,1421.4c0,174.1-156.7,315.2-196.1,315.2c-39.9,0-196.1-141.1-196.1-315.2
		c0-174.1,87.8-275.2,196.1-275.2S2027.3,1247.3,2027.3,1421.4z"/>
	<linearGradient id="SVGID_28_" gradientUnits="userSpaceOnUse" x1="1726.7987" y1="1437.3416" x2="1761.9619" y2="1437.3416">
		<stop  offset="0" style="stop-color:#414042"/>
		<stop  offset="1" style="stop-color:#000000"/>
	</linearGradient>
	<circle fill="url(#SVGID_28_)" cx="1744.4" cy="1437.3" r="17.6"/>
	
		<linearGradient id="SVGID_29_" gradientUnits="userSpaceOnUse" x1="-880.4728" y1="1437.3416" x2="-845.3096" y2="1437.3416" gradientTransform="matrix(-1 0 0 1 1055.2704 0)">
		<stop  offset="0" style="stop-color:#414042"/>
		<stop  offset="1" style="stop-color:#000000"/>
	</linearGradient>
	<circle fill="url(#SVGID_29_)" cx="1918.2" cy="1437.3" r="17.6"/>
	<path fill="#B91120" d="M1989.8,1477.4c0,0-69.5,63.2-158.5,65c-89-1.8-158.5-65-158.5-65c-6.2,101.9,87.2,189.4,112.2,205.4
		c6.6,4.2,15.2,4.3,22,0.3c7.2-4.3,15.7-6.8,24.3-7.3c8.7,0.6,17.2,3,24.3,7.3c6.7,4.1,15.4,4,22-0.3
		C1902.6,1666.8,1996,1579.3,1989.8,1477.4z"/>
	<g>
		<path fill="#FFE27C" d="M1715.6,1580c2.8,4.9,5.6,9.6,8.5,14c8.5,2.2,17.4,4.2,26.6,5.9V1542c-12.8-4.9-24.6-10.5-35.1-16.1V1580z
			 M1833.3,1606.8c11.9,0,23.6-0.5,35.1-1.4v-50.9c-11.2,2.1-23,3.5-35.1,3.8V1606.8z M1872.6,1605c12-1,23.8-2.5,35.1-4.4v-57
			c-11,4-22.7,7.5-35.1,10V1605z M1711.4,1572.3v-48.7c-7.9-4.4-14.9-8.8-21.1-12.9C1693.9,1533.3,1702,1554.2,1711.4,1572.3z
			 M1754.9,1600.6c11.3,1.9,23,3.4,35.1,4.4v-51.4c-12.3-2.6-24.1-6-35.1-10V1600.6z M1951.1,1523.6v48.8
			c12.1-23.2,18.3-44,21.1-61.7C1966,1514.9,1958.9,1519.2,1951.1,1523.6z M1794.1,1605.3c11.5,0.9,23.2,1.4,35.1,1.4v-48.4
			c-12.1-0.3-23.8-1.7-35.1-3.9V1605.3z M1794.1,1669.6c0.6,0.3,1.3,0.4,2.1,0.4c0.9,0,1.8-0.2,2.5-0.7c8.9-5.4,19.4-8.6,30.5-9.5
			v-49.1c-11.9-0.1-23.6-0.5-35.1-1.4V1669.6z M1730.2,1603.1c6.7,9.5,13.6,18.3,20.4,26.1v-25.4c-8-1.4-15.8-3.1-23.3-5
			C1728.3,1600.4,1729.3,1601.8,1730.2,1603.1z M1911.8,1599.8c9.2-1.7,18.1-3.6,26.7-5.9c3-4.7,5.8-9.3,8.4-13.9v-54.2
			c-10.5,5.7-22.2,11.2-35.1,16.1V1599.8z M1872.6,1666.9c8.3-6.1,21.2-17.5,35.1-32.8v-29.4c-11.3,1.9-23,3.4-35.1,4.4V1666.9z
			 M1911.8,1629.3c6.8-7.9,13.8-16.7,20.5-26.2c1-1.4,1.9-2.8,2.9-4.2c-7.5,1.9-15.3,3.5-23.4,5V1629.3z M1833.3,1659.9
			c11.1,0.9,21.7,4.1,30.6,9.5c0.7,0.4,1.6,0.7,2.5,0.7c0.7,0,1.4-0.1,2-0.4v-60.3c-11.5,0.9-23.2,1.3-35.1,1.4V1659.9z
			 M1754.9,1634c13.8,15.3,26.7,26.8,35.1,32.9V1609c-12-1-23.8-2.5-35.1-4.4V1634z"/>
	</g>
	<linearGradient id="SVGID_30_" gradientUnits="userSpaceOnUse" x1="1970.2565" y1="1022.1679" x2="1732.697" y2="1452.3428">
		<stop  offset="0.298" style="stop-color:#508C42"/>
		<stop  offset="1" style="stop-color:#002A0B"/>
	</linearGradient>
	<path fill="url(#SVGID_30_)" d="M1844.2,1318.4c0,0-69.3-56.8-88-100c0,0-66.8,39-80.4,79l23.4,18c0,0-59.4,45.6-60,98.1
		c0,0-53-93.1-25-205.1s134.5-182,208.8-191c0,0-58.3,40-61,81s391.2-81,391.2-81l-65,57l89-8.3c0,0-141,149.4-150.9,329.3
		c0,0-7.2-67-69.2-83c0,0,22-20,23-28C1980.2,1284.4,1884.2,1170.4,1844.2,1318.4z"/>
	<linearGradient id="SVGID_31_" gradientUnits="userSpaceOnUse" x1="1772.1897" y1="1432.6962" x2="1742.1797" y2="1487.0387">
		<stop  offset="0" style="stop-color:#414042"/>
		<stop  offset="1" style="stop-color:#000000"/>
	</linearGradient>
	<path fill="url(#SVGID_31_)" d="M1672.2,1450c0,0,28.7-56.3,53.5-54.1s86.5,70.1,97.3,108.7c0,0-67.2-86.4-98.4-87.1
		C1693.4,1416.7,1672.2,1450,1672.2,1450z"/>
	
		<linearGradient id="SVGID_32_" gradientUnits="userSpaceOnUse" x1="-835.0818" y1="1432.6962" x2="-865.0918" y2="1487.0387" gradientTransform="matrix(-1 0 0 1 1055.2704 0)">
		<stop  offset="0" style="stop-color:#414042"/>
		<stop  offset="1" style="stop-color:#000000"/>
	</linearGradient>
	<path fill="url(#SVGID_32_)" d="M1990.3,1450c0,0-28.7-56.3-53.5-54.1s-86.5,70.1-97.3,108.7c0,0,67.2-86.4,98.4-87.1
		C1969.1,1416.7,1990.3,1450,1990.3,1450z"/>
</g>
</svg>
