<?xml version="1.0" encoding="UTF-8" standalone="no"?>
<!-- Created with Inkscape (http://www.inkscape.org/) -->

<svg
   xmlns:dc="http://purl.org/dc/elements/1.1/"
   xmlns:cc="http://creativecommons.org/ns#"
   xmlns:rdf="http://www.w3.org/1999/02/22-rdf-syntax-ns#"
   xmlns:svg="http://www.w3.org/2000/svg"
   xmlns="http://www.w3.org/2000/svg"
   xmlns:xlink="http://www.w3.org/1999/xlink"
   xmlns:sodipodi="http://sodipodi.sourceforge.net/DTD/sodipodi-0.dtd"
   xmlns:inkscape="http://www.inkscape.org/namespaces/inkscape"
   width="210mm"
   height="297mm"
   viewBox="0 0 210 297"
   version="1.1"
   id="svg1383"
   inkscape:version="0.92.2 5c3e80d, 2017-08-06"
   sodipodi:docname="drawing.svg">
  <defs
     id="defs1377">
    <linearGradient
       id="SVGID_23_"
       gradientUnits="userSpaceOnUse"
       x1="1043.4314"
       y1="1391.2363"
       x2="1013.4213"
       y2="1445.5789"
       gradientTransform="matrix(0.19454521,0,0,0.18117434,-257.95337,-141.32502)">
      <stop
         offset="0"
         style="stop-color:#414042"
         id="stop292" />
      <stop
         offset="1"
         style="stop-color:#000000"
         id="stop294" />
    </linearGradient>
    <linearGradient
       id="SVGID_24_"
       gradientUnits="userSpaceOnUse"
       x1="998.04041"
       y1="1423.9506"
       x2="1033.2036"
       y2="1423.9506"
       gradientTransform="matrix(0.19454521,0,0,0.18117434,-257.95337,-141.32502)">
      <stop
         offset="0"
         style="stop-color:#414042"
         id="stop299" />
      <stop
         offset="1"
         style="stop-color:#000000"
         id="stop301" />
    </linearGradient>
    <linearGradient
       id="SVGID_25_"
       gradientUnits="userSpaceOnUse"
       x1="-106.3235"
       y1="1391.2363"
       x2="-136.3335"
       y2="1445.5789"
       gradientTransform="matrix(-0.19454521,0,0,0.18117434,-52.655568,-141.32502)">
      <stop
         offset="0"
         style="stop-color:#414042"
         id="stop306" />
      <stop
         offset="1"
         style="stop-color:#000000"
         id="stop308" />
    </linearGradient>
    <linearGradient
       id="SVGID_26_"
       gradientUnits="userSpaceOnUse"
       x1="-151.71449"
       y1="1423.9506"
       x2="-116.5513"
       y2="1423.9506"
       gradientTransform="matrix(-0.19454521,0,0,0.18117434,-52.655568,-141.32502)">
      <stop
         offset="0"
         style="stop-color:#414042"
         id="stop313" />
      <stop
         offset="1"
         style="stop-color:#000000"
         id="stop315" />
    </linearGradient>
    <linearGradient
       id="SVGID_27_"
       gradientUnits="userSpaceOnUse"
       x1="1172.0948"
       y1="1116.4619"
       x2="990.29022"
       y2="1445.6755"
       gradientTransform="matrix(0.19454521,0,0,0.18117434,-257.95337,-141.32502)"
       xlink:href="#linearGradient4946">
      <stop
         offset="0.298"
         style="stop-color:#508C42"
         id="stop326" />
      <stop
         offset="1"
         style="stop-color:#002A0B"
         id="stop328" />
    </linearGradient>
    <linearGradient
       y2="1445.5789"
       x2="1013.4213"
       y1="1391.2363"
       x1="1043.4314"
       gradientUnits="userSpaceOnUse"
       id="linearGradient4915">
      <stop
         id="stop4911"
         style="stop-color:#414042"
         offset="0" />
      <stop
         id="stop4913"
         style="stop-color:#000000"
         offset="1" />
    </linearGradient>
    <linearGradient
       y2="1423.9506"
       x2="1033.2036"
       y1="1423.9506"
       x1="998.04041"
       gradientUnits="userSpaceOnUse"
       id="linearGradient4922">
      <stop
         id="stop4918"
         style="stop-color:#414042"
         offset="0" />
      <stop
         id="stop4920"
         style="stop-color:#000000"
         offset="1" />
    </linearGradient>
    <linearGradient
       gradientTransform="matrix(-1,0,0,1,1055.2704,0)"
       y2="1445.5789"
       x2="-136.3335"
       y1="1391.2363"
       x1="-106.3235"
       gradientUnits="userSpaceOnUse"
       id="linearGradient4929">
      <stop
         id="stop4925"
         style="stop-color:#414042"
         offset="0" />
      <stop
         id="stop4927"
         style="stop-color:#000000"
         offset="1" />
    </linearGradient>
    <linearGradient
       gradientTransform="matrix(-1,0,0,1,1055.2704,0)"
       y2="1423.9506"
       x2="-116.5513"
       y1="1423.9506"
       x1="-151.71449"
       gradientUnits="userSpaceOnUse"
       id="linearGradient4936">
      <stop
         id="stop4932"
         style="stop-color:#414042"
         offset="0" />
      <stop
         id="stop4934"
         style="stop-color:#000000"
         offset="1" />
    </linearGradient>
    <linearGradient
       y2="1445.6755"
       x2="990.29022"
       y1="1116.4619"
       x1="1172.0948"
       gradientUnits="userSpaceOnUse"
       id="linearGradient4946">
      <stop
         id="stop4942"
         style="stop-color:#508C42"
         offset="0.298" />
      <stop
         id="stop4944"
         style="stop-color:#002A0B"
         offset="1" />
    </linearGradient>
  </defs>
  <sodipodi:namedview
     id="base"
     pagecolor="#ffffff"
     bordercolor="#666666"
     borderopacity="1.0"
     inkscape:pageopacity="0.0"
     inkscape:pageshadow="2"
     inkscape:zoom="0.35"
     inkscape:cx="-162.85714"
     inkscape:cy="445.71429"
     inkscape:document-units="mm"
     inkscape:current-layer="layer1"
     showgrid="false"
     inkscape:window-width="1280"
     inkscape:window-height="715"
     inkscape:window-x="0"
     inkscape:window-y="1"
     inkscape:window-maximized="1" />
  <metadata
     id="metadata1380">
    <rdf:RDF>
      <cc:Work
         rdf:about="">
        <dc:format>image/svg+xml</dc:format>
        <dc:type
           rdf:resource="http://purl.org/dc/dcmitype/StillImage" />
        <dc:title></dc:title>
      </cc:Work>
    </rdf:RDF>
  </metadata>
  <g
     inkscape:label="Layer 1"
     inkscape:groupmode="layer"
     id="layer1">
    <g
       id="g2225"
       inkscape:export-xdpi="96"
       inkscape:export-ydpi="96">
      <path
         style="fill:#ffffff;stroke:#5b78ff;stroke-width:1;stroke-miterlimit:4;stroke-dasharray:none;stroke-opacity:1"
         inkscape:connector-curvature="0"
         d="M 171.0758,247.1714 H 48.150387 c -5.953125,0 -10.768542,-4.81542 -10.768542,-10.76854 V 34.049525 c 0,-5.953125 4.815417,-10.768541 10.768542,-10.768541 H 171.0758 c 5.95313,0 10.76854,4.815416 10.76854,10.768541 V 236.40286 c 0,5.95312 -4.81541,10.76854 -10.76854,10.76854 z"
         id="path4" />
      <g
         transform="matrix(0.26458333,0,0,0.26458333,-13.815029,9.5491087)"
         id="g30"
         style="stroke:#5b78ff;stroke-width:3.77952766;stroke-miterlimit:4;stroke-dasharray:none;stroke-opacity:1">
        <g
           id="g16"
           style="stroke:#5b78ff;stroke-width:3.77952766;stroke-miterlimit:4;stroke-dasharray:none;stroke-opacity:1">
          <path
             style="fill:#170039;stroke:#5b78ff;stroke-width:3.77952766;stroke-miterlimit:4;stroke-dasharray:none;stroke-opacity:1"
             inkscape:connector-curvature="0"
             d="m 242.4,105.1 c 0,1.8 -0.2,3.4 -0.7,4.8 -0.4,1.4 -1.1,2.7 -2,3.6 -0.9,1 -1.9,1.8 -3.2,2.3 -1.3,0.5 -2.7,0.8 -4.4,0.8 -1.5,0 -3,-0.2 -4.6,-0.6 l 0.3,-2.8 c 0,-0.3 0.1,-0.5 0.3,-0.7 0.2,-0.2 0.4,-0.3 0.8,-0.3 0.3,0 0.6,0.1 1,0.2 0.4,0.1 1,0.2 1.7,0.2 1,0 1.8,-0.1 2.5,-0.4 0.7,-0.3 1.4,-0.7 1.9,-1.3 0.5,-0.6 0.9,-1.4 1.2,-2.3 0.3,-0.9 0.4,-2.1 0.4,-3.4 V 84.1 h 4.8 z"
             id="path6" />
          <path
             style="fill:#170039;stroke:#5b78ff;stroke-width:3.77952766;stroke-miterlimit:4;stroke-dasharray:none;stroke-opacity:1"
             inkscape:connector-curvature="0"
             d="m 252.5,145.1 c 0,2.4 -0.4,4.6 -1.2,6.6 -0.8,2 -1.9,3.7 -3.3,5.2 -1.4,1.5 -3.1,2.6 -5,3.4 -2,0.8 -4.1,1.2 -6.5,1.2 -2.4,0 -4.5,-0.4 -6.5,-1.2 -2,-0.8 -3.6,-1.9 -5,-3.4 -1.4,-1.5 -2.5,-3.2 -3.3,-5.2 -0.8,-2 -1.2,-4.2 -1.2,-6.6 0,-2.4 0.4,-4.6 1.2,-6.6 0.8,-2 1.9,-3.8 3.3,-5.2 1.4,-1.5 3.1,-2.6 5,-3.4 2,-0.8 4.1,-1.2 6.5,-1.2 2.4,0 4.6,0.4 6.5,1.2 2,0.8 3.6,2 5,3.4 1.4,1.5 2.5,3.2 3.3,5.2 0.8,2 1.2,4.2 1.2,6.6 z m -4.9,0 c 0,-1.9 -0.3,-3.6 -0.8,-5.2 -0.5,-1.5 -1.3,-2.8 -2.2,-3.9 -0.9,-1.1 -2.1,-1.9 -3.5,-2.4 -1.4,-0.6 -2.9,-0.9 -4.6,-0.9 -1.7,0 -3.2,0.3 -4.6,0.9 -1.4,0.6 -2.5,1.4 -3.5,2.4 -1,1.1 -1.7,2.4 -2.2,3.9 -0.5,1.5 -0.8,3.2 -0.8,5.2 0,1.9 0.3,3.7 0.8,5.2 0.5,1.5 1.3,2.8 2.2,3.9 1,1.1 2.1,1.9 3.5,2.4 1.4,0.6 2.9,0.8 4.6,0.8 1.7,0 3.2,-0.3 4.6,-0.8 1.4,-0.6 2.5,-1.4 3.5,-2.4 1,-1.1 1.7,-2.4 2.2,-3.9 0.5,-1.5 0.8,-3.3 0.8,-5.2 z"
             id="path8" />
          <path
             style="fill:#170039;stroke:#5b78ff;stroke-width:3.77952766;stroke-miterlimit:4;stroke-dasharray:none;stroke-opacity:1"
             inkscape:connector-curvature="0"
             d="m 230.3,187.8 h 1.6 c 0.6,0 1,-0.1 1.4,-0.2 0.4,-0.1 0.7,-0.4 1,-0.7 L 244.5,175 c 0.3,-0.4 0.7,-0.7 1,-0.8 0.3,-0.2 0.8,-0.2 1.3,-0.2 h 4.1 L 239,187.7 c -0.3,0.4 -0.6,0.7 -0.9,0.9 -0.3,0.2 -0.6,0.4 -0.9,0.6 0.8,0.3 1.5,0.9 2.2,1.7 l 12.4,15.2 h -4.1 c -0.3,0 -0.6,0 -0.8,-0.1 -0.2,-0.1 -0.4,-0.1 -0.6,-0.2 -0.2,-0.1 -0.3,-0.2 -0.4,-0.3 -0.1,-0.1 -0.2,-0.3 -0.3,-0.4 L 235,192.5 c -0.1,-0.2 -0.3,-0.4 -0.4,-0.5 -0.1,-0.1 -0.3,-0.2 -0.5,-0.3 -0.2,-0.1 -0.4,-0.1 -0.7,-0.2 -0.3,0 -0.6,-0.1 -0.9,-0.1 h -2 V 206 h -4.8 v -32.2 h 4.8 v 14 z"
             id="path10" />
          <path
             style="fill:#170039;stroke:#5b78ff;stroke-width:3.77952766;stroke-miterlimit:4;stroke-dasharray:none;stroke-opacity:1"
             inkscape:connector-curvature="0"
             d="m 247.5,247 v 3.9 h -20 v -32.2 h 20 v 3.9 h -15.2 v 10.2 h 12.2 v 3.7 H 232.3 V 247 Z"
             id="path12" />
          <path
             style="fill:#170039;stroke:#5b78ff;stroke-width:3.77952766;stroke-miterlimit:4;stroke-dasharray:none;stroke-opacity:1"
             inkscape:connector-curvature="0"
             d="m 250.5,295.8 h -4.3 c -0.9,0 -1.5,-0.3 -1.9,-1 l -8,-11.2 c -0.3,-0.4 -0.5,-0.6 -0.8,-0.8 -0.3,-0.2 -0.7,-0.2 -1.3,-0.2 h -3.1 v 13.2 h -4.8 v -32.2 h 9.3 c 2.1,0 3.9,0.2 5.4,0.6 1.5,0.4 2.7,1 3.7,1.8 1,0.8 1.7,1.7 2.2,2.8 0.5,1.1 0.7,2.3 0.7,3.7 0,1.1 -0.2,2.2 -0.5,3.2 -0.3,1 -0.8,1.9 -1.5,2.7 -0.7,0.8 -1.5,1.5 -2.4,2 -1,0.6 -2,1 -3.3,1.3 0.6,0.4 1.1,0.9 1.5,1.5 z m -15,-16.7 c 1.2,0 2.3,-0.1 3.2,-0.4 0.9,-0.3 1.7,-0.7 2.3,-1.3 0.6,-0.5 1.1,-1.2 1.4,-2 0.3,-0.8 0.5,-1.6 0.5,-2.5 0,-1.9 -0.6,-3.3 -1.8,-4.2 -1.2,-0.9 -3,-1.4 -5.5,-1.4 h -4.5 v 11.8 z"
             id="path14" />
        </g>
        <g
           id="g28"
           style="stroke:#5b78ff;stroke-width:3.77952766;stroke-miterlimit:4;stroke-dasharray:none;stroke-opacity:1">
          <path
             style="fill:#170039;stroke:#5b78ff;stroke-width:3.77952766;stroke-miterlimit:4;stroke-dasharray:none;stroke-opacity:1"
             inkscape:connector-curvature="0"
             d="m 690.7,844.8 c 0,-1.8 0.2,-3.4 0.7,-4.8 0.4,-1.4 1.1,-2.7 2,-3.6 0.9,-1 1.9,-1.8 3.2,-2.3 1.3,-0.5 2.7,-0.8 4.4,-0.8 1.5,0 3,0.2 4.6,0.6 l -0.3,2.8 c 0,0.3 -0.1,0.5 -0.3,0.7 -0.2,0.2 -0.4,0.3 -0.8,0.3 -0.3,0 -0.6,-0.1 -1,-0.2 -0.4,-0.1 -1,-0.2 -1.7,-0.2 -1,0 -1.8,0.1 -2.5,0.4 -0.7,0.3 -1.4,0.7 -1.9,1.3 -0.5,0.6 -0.9,1.4 -1.2,2.3 -0.3,0.9 -0.4,2.1 -0.4,3.4 v 21.1 h -4.8 z"
             id="path18" />
          <path
             style="fill:#170039;stroke:#5b78ff;stroke-width:3.77952766;stroke-miterlimit:4;stroke-dasharray:none;stroke-opacity:1"
             inkscape:connector-curvature="0"
             d="m 680.5,804.8 c 0,-2.4 0.4,-4.6 1.2,-6.6 0.8,-2 1.9,-3.7 3.3,-5.2 1.4,-1.5 3.1,-2.6 5,-3.4 2,-0.8 4.1,-1.2 6.5,-1.2 2.4,0 4.5,0.4 6.5,1.2 2,0.8 3.6,1.9 5,3.4 1.4,1.5 2.5,3.2 3.3,5.2 0.8,2 1.2,4.2 1.2,6.6 0,2.4 -0.4,4.6 -1.2,6.6 -0.8,2 -1.9,3.8 -3.3,5.2 -1.4,1.5 -3.1,2.6 -5,3.4 -2,0.8 -4.1,1.2 -6.5,1.2 -2.4,0 -4.6,-0.4 -6.5,-1.2 -2,-0.8 -3.6,-2 -5,-3.4 -1.4,-1.5 -2.5,-3.2 -3.3,-5.2 -0.8,-2 -1.2,-4.2 -1.2,-6.6 z m 4.9,0 c 0,1.9 0.3,3.6 0.8,5.2 0.5,1.5 1.3,2.8 2.2,3.9 0.9,1.1 2.1,1.9 3.5,2.4 1.4,0.6 2.9,0.9 4.6,0.9 1.7,0 3.2,-0.3 4.6,-0.9 1.4,-0.6 2.5,-1.4 3.5,-2.4 1,-1.1 1.7,-2.4 2.2,-3.9 0.5,-1.5 0.8,-3.2 0.8,-5.2 0,-1.9 -0.3,-3.7 -0.8,-5.2 -0.5,-1.5 -1.3,-2.8 -2.2,-3.9 -1,-1.1 -2.1,-1.9 -3.5,-2.4 -1.4,-0.6 -2.9,-0.8 -4.6,-0.8 -1.7,0 -3.2,0.3 -4.6,0.8 -1.4,0.6 -2.5,1.4 -3.5,2.4 -1,1.1 -1.7,2.4 -2.2,3.9 -0.5,1.5 -0.8,3.3 -0.8,5.2 z"
             id="path20" />
          <path
             style="fill:#170039;stroke:#5b78ff;stroke-width:3.77952766;stroke-miterlimit:4;stroke-dasharray:none;stroke-opacity:1"
             inkscape:connector-curvature="0"
             d="m 702.8,762.1 h -1.6 c -0.6,0 -1,0.1 -1.4,0.2 -0.4,0.1 -0.7,0.4 -1,0.7 l -10.2,12 c -0.3,0.4 -0.7,0.7 -1,0.8 -0.3,0.2 -0.8,0.2 -1.3,0.2 h -4.1 l 11.9,-13.7 c 0.3,-0.4 0.6,-0.7 0.9,-0.9 0.3,-0.2 0.6,-0.4 0.9,-0.6 -0.8,-0.3 -1.5,-0.9 -2.2,-1.7 l -12.4,-15.2 h 4.1 c 0.3,0 0.6,0 0.8,0.1 0.2,0.1 0.4,0.1 0.6,0.2 0.2,0.1 0.3,0.2 0.4,0.3 0.1,0.1 0.2,0.3 0.3,0.4 l 10.6,12.6 c 0.1,0.2 0.3,0.4 0.4,0.5 0.1,0.1 0.3,0.2 0.5,0.3 0.2,0.1 0.4,0.1 0.7,0.2 0.3,0 0.6,0.1 0.9,0.1 h 2 V 744 h 4.8 v 32.2 h -4.8 v -14.1 z"
             id="path22" />
          <path
             style="fill:#170039;stroke:#5b78ff;stroke-width:3.77952766;stroke-miterlimit:4;stroke-dasharray:none;stroke-opacity:1"
             inkscape:connector-curvature="0"
             d="M 685.5,702.9 V 699 h 20 v 32.2 h -20 v -3.9 h 15.2 v -10.2 h -12.2 v -3.7 h 12.2 v -10.5 z"
             id="path24" />
          <path
             style="fill:#170039;stroke:#5b78ff;stroke-width:3.77952766;stroke-miterlimit:4;stroke-dasharray:none;stroke-opacity:1"
             inkscape:connector-curvature="0"
             d="m 682.5,654.2 h 4.3 c 0.9,0 1.5,0.3 1.9,1 l 8,11.2 c 0.3,0.4 0.5,0.6 0.8,0.8 0.3,0.2 0.7,0.2 1.3,0.2 h 3.1 v -13.2 h 4.8 v 32.2 h -9.3 c -2.1,0 -3.9,-0.2 -5.4,-0.6 -1.5,-0.4 -2.7,-1 -3.7,-1.8 -1,-0.8 -1.7,-1.7 -2.2,-2.8 -0.5,-1.1 -0.7,-2.3 -0.7,-3.7 0,-1.1 0.2,-2.2 0.5,-3.2 0.3,-1 0.8,-1.9 1.5,-2.7 0.7,-0.8 1.5,-1.5 2.4,-2 1,-0.6 2,-1 3.3,-1.3 -0.6,-0.4 -1.1,-0.9 -1.5,-1.5 z m 15.1,16.6 c -1.2,0 -2.3,0.1 -3.2,0.4 -0.9,0.3 -1.7,0.7 -2.3,1.3 -0.6,0.5 -1.1,1.2 -1.4,2 -0.3,0.8 -0.5,1.6 -0.5,2.5 0,1.9 0.6,3.3 1.8,4.2 1.2,0.9 3,1.4 5.5,1.4 h 4.5 v -11.8 z"
             id="path26" />
        </g>
      </g>
      <g
         transform="matrix(0.89423709,0,0,0.89423709,150.40307,36.471817)"
         id="g2197">
        <ellipse
           id="ellipse286"
           ry="8.5514288"
           rx="7.8012629"
           cy="114.76491"
           cx="-5.5115104"
           style="fill:#fdfdff;stroke-width:0.18774077" />
        <ellipse
           id="ellipse288"
           ry="8.5514288"
           rx="7.8012629"
           cy="114.76491"
           cx="-81.520317"
           style="fill:#fdfdff;stroke-width:0.18774077" />
        <path
           id="path290"
           d="m -5.3169603,116.19619 c 0,31.54245 -30.4852347,57.10615 -38.1503157,57.10615 -7.762354,0 -38.150316,-25.5637 -38.150316,-57.10615 0,-31.542456 17.08107,-49.859181 38.150316,-49.859181 21.069246,0 38.1503157,18.316725 38.1503157,49.859181 z"
           inkscape:connector-curvature="0"
           style="fill:#fdfdff;stroke-width:0.18774077" />
        <path
           id="path297"
           d="m -74.419419,113.85904 c 0,0 5.583448,-10.20012 10.408169,-9.80153 4.824721,0.39858 16.828161,12.70032 18.929249,19.69365 0,0 -13.073438,-15.65347 -19.143249,-15.78029 -6.050356,-0.14494 -10.194169,5.88817 -10.194169,5.88817 z"
           inkscape:connector-curvature="0"
           style="fill:url(#SVGID_23_);stroke-width:0.18774077" />
        <ellipse
           id="circle304"
           cy="116.66724"
           cx="-60.37326"
           style="fill:url(#SVGID_24_);stroke-width:0.18774077"
           rx="3.4239957"
           ry="3.1886685" />
        <path
           id="path311"
           d="m -12.515133,113.85904 c 0,0 -5.583448,-10.20012 -10.408169,-9.80153 -4.824721,0.39858 -16.82816,12.70032 -18.929249,19.69365 0,0 13.073438,-15.65347 19.143249,-15.78029 6.06981,-0.14494 10.194169,5.88817 10.194169,5.88817 z"
           inkscape:connector-curvature="0"
           style="fill:url(#SVGID_25_);stroke-width:0.18774077" />
        <ellipse
           id="circle318"
           cy="116.66724"
           cx="-26.561293"
           style="fill:url(#SVGID_26_);stroke-width:0.18774077"
           rx="3.4239957"
           ry="3.1886685" />
        <path
           id="path320"
           d="m -12.63186,120.30884 c 0,0 -13.520892,11.45022 -30.835416,11.77634 -17.314524,-0.32612 -30.835416,-11.77634 -30.835416,-11.77634 -1.20618,18.46167 16.964343,34.31442 21.827973,37.21321 1.283998,0.76094 2.957087,0.77905 4.279994,0.0544 1.400726,-0.77905 3.05436,-1.23199 4.727449,-1.32258 1.692543,0.10871 3.346178,0.54353 4.727449,1.32258 1.303453,0.74281 2.995996,0.72469 4.279994,-0.0544 4.883085,-2.89879 23.034153,-18.76966 21.827973,-37.21321 z"
           inkscape:connector-curvature="0"
           style="fill:#b91120;stroke-width:0.18774077" />
        <g
           id="g324"
           transform="matrix(0.19454521,0,0,0.18117434,-257.95337,-141.32502)"
           style="stroke:#ff78dd;stroke-opacity:1">
          <path
             id="path322"
             d="m 986.9,1546.7 c 2.8,4.9 5.6,9.6 8.5,14 8.5,2.2 17.4,4.2 26.6,5.9 v -57.8 c -12.8,-4.9 -24.6,-10.5 -35.1,-16.1 z m 117.7,26.7 c 11.9,0 23.6,-0.5 35.1,-1.4 v -50.9 c -11.2,2.1 -23,3.5 -35.1,3.8 z m 39.2,-1.7 c 12,-1 23.8,-2.5 35.1,-4.4 v -57 c -11,4 -22.7,7.5 -35.1,10 z M 982.7,1539 v -48.7 c -7.9,-4.4 -14.9,-8.8 -21.1,-12.9 3.5,22.5 11.6,43.5 21.1,61.6 z m 43.4,28.2 c 11.3,1.9 23,3.4 35.1,4.4 v -51.4 c -12.3,-2.6 -24.1,-6 -35.1,-10 z m 196.2,-76.9 v 48.8 c 12.1,-23.2 18.3,-44 21.1,-61.7 -6.2,4.1 -13.2,8.5 -21.1,12.9 z m -157,81.7 c 11.5,0.9 23.2,1.4 35.1,1.4 V 1525 c -12.1,-0.3 -23.8,-1.7 -35.1,-3.9 z m 0,64.3 c 0.6,0.3 1.3,0.4 2.1,0.4 0.9,0 1.8,-0.2 2.5,-0.7 8.9,-5.4 19.4,-8.6 30.5,-9.5 v -49.1 c -11.9,-0.1 -23.6,-0.5 -35.1,-1.4 z m -63.8,-66.5 c 6.7,9.5 13.6,18.3 20.4,26.1 v -25.4 c -8,-1.4 -15.8,-3.1 -23.3,-5 1,1.5 1.9,2.9 2.9,4.3 z m 181.6,-3.3 c 9.2,-1.7 18.1,-3.6 26.7,-5.9 3,-4.7 5.8,-9.3 8.4,-13.9 v -54.2 c -10.5,5.7 -22.2,11.2 -35.1,16.1 z m -39.3,67 c 8.3,-6.1 21.2,-17.5 35.1,-32.8 v -29.4 c -11.3,1.9 -23,3.4 -35.1,4.4 z m 39.3,-37.5 c 6.8,-7.9 13.8,-16.7 20.5,-26.2 1,-1.4 1.9,-2.8 2.9,-4.2 -7.5,1.9 -15.3,3.5 -23.4,5 z m -78.5,30.6 c 11.1,0.9 21.7,4.1 30.6,9.5 0.7,0.4 1.6,0.7 2.5,0.7 0.7,0 1.4,-0.1 2,-0.4 V 1576 c -11.5,0.9 -23.2,1.3 -35.1,1.4 z m -78.5,-26 c 13.8,15.3 26.7,26.8 35.1,32.9 v -57.8 c -12,-1 -23.8,-2.5 -35.1,-4.4 z"
             inkscape:connector-curvature="0"
             style="fill:#ffe27c;stroke:#ff78dd;stroke-opacity:1" />
        </g>
        <path
           id="path331"
           d="M -10.647499,77.062529 C -18.52658,66.500065 -30.277111,62.550465 -37.358556,61.064835 c -3.676905,-0.760932 6.167083,-4.475006 19.259975,-8.732603 -16.672524,-3.261138 -46.223941,8.678251 -58.188472,24.71218 -11.96453,16.033929 -24.220877,8.152845 -31.224507,4.619946 8.462718,28.806722 27.139058,32.212802 27.139058,32.212802 0,0 -1.167272,-12.93585 14.299073,-18.081204 0,0 -11.517077,-10.79799 2.276179,-19.83859 0,0 8.209807,10.326937 20.329974,13.044552 12.120167,-2.717615 20.329974,-13.044552 20.329974,-13.044552 13.8127104,9.0406 2.276179,19.83859 2.276179,19.83859 15.4663446,5.163464 14.2990734,18.081204 14.2990734,18.081204 0,0 18.6763406,-3.4242 27.1390566,-32.212802 -7.003627,3.551017 -19.2599756,11.432101 -31.224506,-4.601829 z"
           inkscape:connector-curvature="0"
           style="fill:#5b78ff;fill-opacity:1;stroke-width:0.18774077" />
      </g>
    </g>
  </g>
</svg>
